<?xml version="1.0" encoding="UTF-8"?>
<svg width="452px" height="353px" viewBox="0 0 452 353" version="1.1" xmlns="http://www.w3.org/2000/svg" xmlns:xlink="http://www.w3.org/1999/xlink">
    <!-- Generator: Sketch 53.2 (72643) - https://sketchapp.com -->
    <title>权限配置</title>
    <desc>Created with Sketch.</desc>
    <defs>
        <rect id="path-1" x="0" y="0" width="314.606742" height="189.384746"></rect>
        <path d="M0.133809657,0 C-1.00942892,17.7757296 5.17300577,26.6635945 18.6811137,26.6635945 C32.1892216,26.6635945 44.1674883,26.6635945 54.6159137,26.6635945 L54.4762991,56.1840026 L95.2970799,41.2650867 L67.7819576,0 L0.133809657,0 Z" id="path-3"></path>
        <polygon id="path-5" points="0 0.0970412812 19.835761 0.0970412812 15.7033108 17.3636807 4.17594968 17.3636807"></polygon>
    </defs>
    <g id="页面-1" stroke="none" stroke-width="1" fill="none" fill-rule="evenodd">
        <g id="权限配置" transform="translate(-1.000000, -10.000000)">
            <g id="设备展示-4" transform="translate(39.000000, 126.000000)">
                <path d="M369.438141,7.6443362 C369.454481,3.44142923 366.183324,0.0197508067 362.130025,0 L36.0722622,0 C34.1248716,0.00948324938 32.2608765,0.820738827 30.8903458,2.25529508 C29.5198148,3.68985133 28.7550184,5.63019322 28.7641254,7.64945647 L28.7640449,212.587302 L369.438202,212.587302 L369.438141,7.6443362 Z" id="路径" fill="#152A7C" fill-rule="nonzero"></path>
                <path d="M339.993874,58.5515928 C341.357759,58.5491356 342.588716,59.3705772 343.112356,60.6326239 C343.635995,61.8946709 343.349111,63.3485733 342.385567,64.3159152 C341.422022,65.2832573 339.971733,65.5733754 338.711431,65.0508955 C337.451126,64.5284156 336.629213,63.2963186 336.629213,61.9295225 C336.629213,60.0663208 338.134641,58.5549555 339.993874,58.5515928 L339.993874,58.5515928 Z M339.332073,58.5515928 C337.695512,58.5490936 336.218707,59.5351102 335.590689,61.0496029 C334.962673,62.5640955 335.30721,64.3085961 336.463551,65.4691751 C337.619892,66.6297542 339.36015,66.977691 340.872377,66.3506491 C342.384602,65.7236071 343.370782,64.2451607 343.370782,62.6051067 C343.372417,61.5306186 342.947635,60.4995763 342.190053,59.7392174 C341.432471,58.9788586 340.404274,58.5515928 339.332073,58.5515928 L339.332073,58.5515928 Z" id="形状" fill="#FFFFFF" fill-rule="nonzero"></path>
                <g id="UI界面" transform="translate(42.247191, 12.611111)">
                    <g id="蒙版" fill="#FFFFFF" fill-rule="nonzero">
                        <rect id="path-1" x="0" y="0" width="314.606742" height="189.384746"></rect>
                    </g>
                    <g id="UI界面/纯UI无载体/UI001-Clipped">
                        <mask id="mask-2" fill="white">
                            <use xlink:href="#path-1"></use>
                        </mask>
                        <g id="path-1"></g>
                    </g>
                </g>
                <path d="M397.377049,208.984127 C398.825666,208.984127 400,210.14854 400,211.584915 L400,217.992063 C400,222.967009 395.932641,227 390.9153,227 L9.08469951,227 C4.06735849,227 0,222.967009 0,217.992063 L0,211.584915 C0,210.14854 1.17433508,208.984127 2.62295082,208.984127 L157.629802,208.985408 C158.310359,211.075467 160.288597,212.587302 162.622951,212.587302 L162.622951,212.587302 L238.688525,212.587302 C241.022879,212.587302 243.001116,211.075467 243.681674,208.985408 L397.377049,208.984127 Z" id="形状结合" fill="#B4C3CB"></path>
            </g>
            <g id="UI界面-9-(1)" transform="translate(96.000000, 145.000000)" fill-rule="nonzero">
                <rect id="矩形" fill="#B8E1FF" x="0" y="0" width="47.534375" height="45.7959184"></rect>
                <rect id="矩形" fill="#B8E1FF" x="54.709375" y="0" width="47.534375" height="45.7959184"></rect>
                <rect id="矩形" fill="#B4BBBF" opacity="0.1" x="113.00625" y="0" width="47.534375" height="45.7959184"></rect>
                <rect id="矩形" fill="#B4BBBF" opacity="0.1" x="172.2" y="0" width="50.225" height="45.7959184"></rect>
                <rect id="矩形" fill="#B4BBBF" opacity="0.1" x="239.465625" y="0" width="47.534375" height="45.7959184"></rect>
                <rect id="矩形" fill="#B8E1FF" x="0" y="62.8571429" width="104.0375" height="113.142857"></rect>
                <g id="编组-11" transform="translate(11.659375, 82.612245)">
                    <path d="M51.6123119,7.21034669 C40.8707153,3.34217696 28.9988275,5.12837697 19.7434247,12.0052207 C10.4880219,18.8820645 4.99095323,30.0011482 4.98709738,41.8532814 C4.98709738,43.2896035 3.87069762,44.4539725 2.4935487,44.4539725 C1.11639978,44.4539725 0,43.2896035 0,41.8532814 C0.00541765657,28.3518333 6.25280556,15.6815947 16.7793788,7.82326207 C27.305952,-0.0350705431 40.819833,-2.11708056 53.0752729,2.23135142" id="路径" fill="#0092FF"></path>
                    <path d="M52.3262267,2.40291744 C70.7951859,8.34319856 83.2108854,24.6488402 83.2316779,42.9913043 C83.2316779,44.462661 81.9622705,45.6554313 80.3963772,45.6554313 C78.8304839,45.6554313 77.5610764,44.462661 77.5610764,42.9913043 C77.5409129,26.9902695 66.7494421,12.7526826 50.6627604,7.50336017" id="路径" fill="#FFFFFF"></path>
                </g>
                <rect id="矩形" fill="#B8E1FF" x="114.8" y="62.8571429" width="171.303125" height="113.142857"></rect>
                <rect id="矩形" fill="#FFFFFF" x="135.428125" y="141.877551" width="6.278125" height="22.4489796"></rect>
                <polygon id="矩形复制-3" fill="#FFFFFF" transform="translate(20.148841, 143.950511) rotate(90.000000) translate(-20.148841, -143.950511) " points="16.5440706 133.589367 23.7536109 133.589367 23.7536109 154.311654 16.5440706 154.311654"></polygon>
                <rect id="矩形" fill="#FFFFFF" x="144.396875" y="114.938776" width="6.278125" height="48.4897959"></rect>
                <polygon id="矩形复制-4" fill="#FFFFFF" transform="translate(34.776339, 155.966412) rotate(90.000000) translate(-34.776339, -155.966412) " points="31.1715687 132.196731 38.3811089 132.196731 38.3811089 179.736093 31.1715687 179.736093"></polygon>
                <rect id="矩形" fill="#FFFFFF" x="170.40625" y="76.3265306" width="6.278125" height="87.1020408"></rect>
                <rect id="矩形" fill="#0092FF" x="158.746875" y="76.3265306" width="6.278125" height="87.1020408"></rect>
                <rect id="矩形" fill="#0092FF" x="185.653125" y="114.938776" width="6.278125" height="48.4897959"></rect>
                <rect id="矩形" fill="#FFFFFF" x="194.621875" y="101.469388" width="6.278125" height="62.8571429"></rect>
                <rect id="矩形" fill="#FFFFFF" x="207.178125" y="80.8163265" width="6.278125" height="82.6122449"></rect>
                <rect id="矩形" fill="#FFC82C" x="218.8375" y="127.510204" width="6.278125" height="35.9183673"></rect>
                <rect id="矩形" fill="#FFC82C" x="233.1875" y="112.244898" width="6.278125" height="51.1836735"></rect>
                <rect id="矩形" fill="#FFC82C" x="244.846875" y="93.3877551" width="6.278125" height="70.0408163"></rect>
                <rect id="矩形" fill="#FFC82C" x="255.609375" y="93.3877551" width="6.278125" height="70.0408163"></rect>
                <g id="PostgreSQLCACHE" transform="translate(69.956250, 12.571429)">
                    <rect id="矩形" fill="#000000" opacity="0" x="0" y="0" width="21.312836" height="19.343901"></rect>
                    <path d="M6.77321604,13.4277006 C6.77321604,12.0255539 7.30237354,10.7235605 8.25485703,9.7220272 L7.93736253,9.7220272 C3.80993402,9.7220272 1.58747251,8.92080053 0.317494502,7.81911385 C0.1058315,8.01942053 2.84217094e-14,8.31988053 2.84217094e-14,8.62034052 L2.84217094e-14,10.7235605 C2.84217094e-14,12.1257072 2.53995601,13.2273939 6.77321604,13.4277006 Z M6.87904754,14.5293872 C3.49243952,14.4292339 1.48164101,13.6280072 0.423326003,12.6264739 C0.1058315,12.9269339 2.84217094e-14,13.1272406 2.84217094e-14,13.4277006 L2.84217094e-14,15.5309206 C2.84217094e-14,17.0332206 2.85745051,18.1349072 7.93736253,18.1349072 L9.41900355,18.1349072 C8.04319403,17.3336806 7.09071054,16.1318406 6.87904754,14.5293872 Z M7.83153103,8.11957386 C12.8056116,8.11957386 16.2980511,6.91773385 16.2980511,5.51558718 L16.2980511,3.8129805 C16.2980511,2.31068048 12.8056116,1.20899382 7.83153103,1.20899382 C2.85745051,1.20899382 0,2.41083383 0,3.8129805 L0,5.41543385 C0,6.91773385 2.96328201,8.11957386 7.83153103,8.11957386 Z M13.9697581,11.5247872 L12.2764541,11.5247872 L12.2764541,13.4277006 L13.9697581,13.4277006 C14.9222416,13.4277006 15.2397361,13.0270872 15.2397361,12.4261672 C15.1339046,12.1257072 14.9222416,11.5247872 13.9697581,11.5247872 L13.9697581,11.5247872 Z" id="形状" fill="#FFFFFF"></path>
                    <path d="M12.5369624,8.46295673 C9.82062051,8.46295673 7.52217742,10.5786959 7.52217742,13.298932 C7.52217742,16.0191681 9.71614584,18.1349072 12.5369624,18.1349072 C15.3577789,18.1349072 17.5517473,16.0191681 17.5517473,13.298932 C17.5517473,10.5786959 15.2533042,8.46295673 12.5369624,8.46295673 Z M13.8951333,14.3064268 L11.9101143,14.3064268 L11.9101143,17.0266629 L10.8653674,17.0266629 L10.8653674,10.5786959 L13.8951333,10.5786959 C14.4175067,10.5786959 15.8801523,10.7801949 15.8801523,12.4929361 C15.8801523,14.4071763 14.5219814,14.3064268 13.8951333,14.3064268 Z" id="形状" fill="#FFFFFF"></path>
                </g>
                <g id="redis" transform="translate(12.556250, 14.367347)">
                    <rect id="矩形" fill="#000000" opacity="0" x="0" y="0" width="21.312836" height="19.343901"></rect>
                    <path d="M12.522213,14.0059383 C11.4897573,14.5940945 10.8702838,14.5940945 10.1475648,14.2019904 C9.32160025,13.8098863 2.50739247,10.8691055 2.50739247,10.8691055 L2.50739247,13.0256781 C2.50739247,13.2217301 2.71388362,13.4177822 3.23011147,13.6138342 C4.15932163,14.1039643 9.32160025,16.2605369 10.1475648,16.652641 C10.9735294,17.0447451 11.4897573,17.0447451 12.522213,16.456589 C13.5546687,15.8684328 18.4072107,13.8098863 19.3364207,13.3197561 C19.8526487,13.0256781 20.0591398,12.829626 20.0591398,12.633574 L20.0591398,10.4770014 C20.0591398,10.5750274 13.5546687,13.4177822 12.522213,14.0059383 Z M12.522213,10.9671315 C11.4897573,11.5552877 10.8702838,11.5552877 10.1475648,11.1631836 C9.32160025,10.7710795 2.50739247,7.83029873 2.50739247,7.83029873 L2.50739247,9.98687129 C2.50739247,10.1829233 2.71388362,10.3789754 3.23011147,10.5750274 C4.15932163,11.0651576 9.32160025,13.2217301 10.1475648,13.6138342 C10.9735294,14.0059383 11.4897573,14.0059383 12.522213,13.4177822 C13.5546687,12.829626 18.4072107,10.7710795 19.3364207,10.2809494 C19.8526487,9.98687129 20.0591398,9.79081923 20.0591398,9.59476718 L20.0591398,7.53622065 C20.0591398,7.53622065 13.5546687,10.4770014 12.522213,10.9671315 Z M20.0591398,4.69346591 C20.0591398,4.49741385 19.8526487,4.30136182 19.3364207,4.20333578 C18.4072107,3.81123169 13.5546687,1.85071118 12.7287041,1.45860707 C11.799494,1.06650297 11.3865117,1.164529 10.354056,1.5566331 C9.32160025,1.9487372 4.05607606,4.00728374 3.23011147,4.39938783 C2.71388362,4.59543989 2.50739247,4.79149193 2.50739247,4.98754398 L2.50739247,7.14411654 C2.50739247,7.14411654 9.32160025,10.0848973 10.1475648,10.5750274 C10.9735294,10.9671315 11.4897573,10.9671315 12.522213,10.3789754 C13.5546687,9.79081923 20.0591398,6.85003847 20.0591398,6.85003847 L20.0591398,4.69346591 Z M17.7877372,4.79149193 L15.1033523,5.86977821 L12.7287041,4.88951796 L15.413089,3.71320567 L17.7877372,4.79149193 L17.7877372,4.79149193 Z M12.8319497,5.77175219 L11.5930028,7.63424667 L8.8053724,6.45793437 L12.8319497,5.77175219 L12.8319497,5.77175219 Z M10.7670383,2.92899746 L10.354056,2.14478926 L11.5930028,2.63491939 L12.7287041,2.24281528 L12.4189674,3.02702348 L13.5546687,3.51715361 L12.0059851,3.71320567 L11.6962484,4.59543989 L11.1800206,3.61517963 L9.42484583,3.41912757 L10.7670383,2.92899746 L10.7670383,2.92899746 Z M7.6696711,4.00728374 C8.90861796,4.00728374 9.83782812,4.39938783 9.83782812,4.88951796 C9.83782812,5.37964809 8.90861796,5.77175219 7.6696711,5.77175219 C6.43072423,5.77175219 5.50151407,5.37964809 5.50151407,4.88951796 C5.50151407,4.39938783 6.5339698,4.00728374 7.6696711,4.00728374 L7.6696711,4.00728374 Z" id="形状" fill="#FFFFFF"></path>
                </g>
                <g id="虚机云主机_p_20" transform="translate(128.253125, 12.571429)">
                    <rect id="矩形" fill="#000000" opacity="0" x="0" y="0" width="21.312836" height="19.343901"></rect>
                    <path d="M8.9736819,5.83771299 L16.2980511,5.83771299 L16.2980511,5.23926107 C16.2980511,5.18097029 16.2849367,5.12267951 16.2608937,5.06827478 C15.5483469,3.45944944 13.8456661,2.41798764 11.928784,2.41798764 C10.1452313,2.41798764 8.55839388,3.33120974 7.77808955,4.74573251 C7.32345845,4.49119614 6.79888411,4.35518432 6.25026679,4.35518432 C4.63501497,4.35518432 3.32139342,5.54237307 3.32139342,6.99964242 C3.32139342,7.10067976 3.33013634,7.20171709 3.3454364,7.30469746 C2.09301518,7.79239691 1.25369624,8.91546583 1.25369624,10.1687174 C1.25369624,11.8941243 2.80774771,13.298932 4.71807259,13.298932 L7.40651607,13.298932 C7.40651607,13.1143445 7.40214463,12.997763 7.40214463,12.8326058 L7.40214463,7.23669157 C7.39995889,6.46531032 8.10594854,5.83771299 8.9736819,5.83771299 Z" id="路径" fill="#91A4ED"></path>
                    <path d="M18.7342107,7.2539629 L10.1008026,7.2539629 C9.36995471,7.2539629 8.77587366,7.79856983 8.77587366,8.4665949 L8.77587366,14.5042876 C8.77587366,15.1723127 9.36995471,15.7169196 10.1008026,15.7169196 L18.7342107,15.7169196 C19.4650588,15.7169196 20.0591398,15.1723127 20.0591398,14.5042876 L20.0591398,8.4665949 C20.0591398,7.79856984 19.4650588,7.2539629 18.7342107,7.2539629 Z M11.3231565,9.13461996 L12.3510449,9.13461996 C12.6352635,9.13461996 12.8660576,9.34423484 12.8660576,9.60478422 C12.8660576,9.86533357 12.6352635,10.0749485 12.3510449,10.0749485 L11.3231565,10.0749485 C11.0389378,10.0749485 10.8081437,9.86533357 10.8081437,9.60478422 C10.8081437,9.34423484 11.0389378,9.13461996 11.3231565,9.13461996 Z M12.3510449,13.8362626 L11.3231565,13.8362626 C11.0389378,13.8362626 10.8081437,13.6266477 10.8081437,13.3660983 C10.8081437,13.1055489 11.0389378,12.895934 11.3231565,12.895934 L12.3510449,12.895934 C12.6352635,12.895934 12.8660576,13.1055489 12.8660576,13.3660983 C12.8660576,13.6266477 12.6352635,13.8362626 12.3510449,13.8362626 Z M18.5504303,11.9556055 L10.2845831,11.9556055 C10.0174603,11.9556055 9.80162513,11.7459906 9.80162513,11.4854412 C9.80162513,11.2248919 10.0174603,11.015277 10.2845831,11.015277 L18.5504303,11.015277 C18.817553,11.015277 19.0333883,11.2248919 19.0333883,11.4854412 C19.0333883,11.7459906 18.817553,11.9556055 18.5504303,11.9556055 L18.5504303,11.9556055 Z" id="形状" fill="#91A4ED"></path>
                </g>
                <g id="AZ-20" transform="translate(188.343750, 12.571429)">
                    <rect id="矩形" fill="#000000" opacity="0" x="0" y="0" width="21.312836" height="19.343901"></rect>
                    <polygon id="路径" fill="#91A4ED" points="7.52217742 9.67195053 8.77587366 9.67195053 8.10723566 7.2539629"></polygon>
                    <path d="M18.6841493,5.34503517 L11.0159464,1.36596385 C10.8058587,1.17648426 10.5957709,1.17648426 10.3856832,1.27122405 L2.71748022,5.34503517 C2.61243635,5.34503517 2.50739247,5.53451475 2.50739247,5.72399434 L2.50739247,13.682137 C2.50739247,13.8716165 2.61243635,13.9663563 2.71748022,14.0610961 L10.3856832,18.0401674 C10.490727,18.0401674 10.5957709,18.1349072 10.5957709,18.1349072 C10.5957709,18.1349072 10.8058587,18.1349072 10.8058587,18.0401674 L18.4740616,14.0610961 C18.6841493,13.9663563 18.6841493,13.7768768 18.6841493,13.682137 L18.6841493,5.72399434 C18.8942371,5.53451475 18.7891931,5.34503517 18.6841493,5.34503517 Z M10.490727,12.5452594 C10.2806393,12.5452594 10.1755954,12.4505197 10.1755954,12.3557799 L9.54533214,10.934683 L7.02427913,10.934683 L6.39401587,12.3557799 C6.288972,12.4505197 6.18392812,12.5452594 5.97384037,12.5452594 L5.76375262,12.5452594 C5.65870874,12.5452594 5.55366487,12.4505197 5.44862099,12.3557799 C5.34357712,12.2610401 5.34357712,12.1663003 5.44862099,11.9768207 L7.75958626,6.86087185 C7.75958626,6.86087185 7.96967401,6.76613206 8.07471788,6.76613206 L8.28480563,6.76613206 C8.49489339,6.76613206 8.59993726,6.86087185 8.59993726,6.95561164 L10.7008148,11.5031217 L13.9571749,7.61879019 L11.0159464,7.61879019 C10.8058587,7.61879019 10.5957709,7.42931061 10.5957709,7.23983102 L10.5957709,7.05035144 C10.5957709,6.86087185 10.8058587,6.67139227 11.0159464,6.67139227 L14.9025698,6.67139227 C15.1126575,6.67139227 15.3227453,6.86087185 15.3227453,7.05035144 L15.3227453,7.23983102 C15.3227453,7.33457082 15.3227453,7.42931061 15.2177014,7.42931061 L11.7512535,11.5978615 L15.1126575,11.5978615 C15.3227453,11.5978615 15.5328331,11.7873411 15.5328331,11.9768207 L15.5328331,12.1663003 C15.5328331,12.3557799 15.3227453,12.5452594 15.1126575,12.5452594 L10.8058587,12.5452594 L10.7008148,12.5452594 L10.490727,12.5452594 L10.490727,12.5452594 Z" id="形状" fill="#91A4ED"></path>
                </g>
                <g id="数据中心-20" transform="translate(252.918750, 12.571429)">
                    <rect id="矩形" fill="#000000" opacity="0" x="0" y="0" width="21.312836" height="19.343901"></rect>
                    <path d="M15.3577789,15.9759897 L5.95505712,15.9759897 C5.64163306,15.9759897 5.4326837,16.1659745 5.4326837,16.4509516 C5.4326837,16.7359287 5.64163306,16.9259134 5.95505712,16.9259134 L15.3577789,16.9259134 C15.671203,16.9259134 15.8801523,16.7359287 15.8801523,16.4509516 C15.8801523,16.1659745 15.671203,15.9759897 15.3577789,15.9759897 Z M18.4920195,3.62698144 L2.82081654,3.62698144 C1.98501903,3.62698144 1.25369624,4.29192805 1.25369624,5.05186703 L1.25369624,13.6011804 C1.25369624,14.3611194 1.98501903,15.026066 2.82081654,15.026066 L18.4920195,15.026066 C19.327817,15.026066 20.0591398,14.3611194 20.0591398,13.6011804 L20.0591398,5.05186703 C20.0591398,4.29192805 19.327817,3.62698144 18.4920195,3.62698144 Z M11.0743168,12.9362338 C10.9698421,13.0312262 10.7608927,13.1262186 10.656418,13.1262186 C10.4474686,13.1262186 10.3429939,13.0312262 10.2385193,12.8412415 L8.4624496,9.70649321 L5.32820901,13.1262186 C5.22373432,13.221211 5.11925963,13.3162033 4.91031026,13.3162033 C4.80583557,13.3162033 4.70136088,13.3162033 4.59688619,13.221211 C4.38793683,13.0312262 4.38793683,12.7462491 4.49241152,12.5562644 L8.14902553,8.66157713 C8.25350022,8.37660001 8.4624496,8.37660001 8.67139897,8.37660001 C8.88034835,8.37660001 8.98482302,8.47159239 9.08929771,8.66157713 L10.8653674,11.7963254 L15.2533042,6.95171445 L13.3727599,6.95171445 C12.9548611,6.95171445 12.7459117,6.76172971 12.7459117,6.47675259 C12.7459117,6.19177547 12.9548611,6.00179074 13.2682852,6.00179074 L16.4025258,6.00179074 C16.7159498,6.00179074 16.9248992,6.19177547 16.9248992,6.47675259 L16.9248992,9.32652374 C16.9248992,9.61150084 16.7159498,9.80148559 16.4025258,9.80148559 C16.0891017,9.80148559 15.8801523,9.61150084 15.8801523,9.32652374 L15.8801523,7.71165342 L11.0743168,12.9362338 Z" id="形状" fill="#91A4ED"></path>
                </g>
                <path d="M58.296875,101.469388 C50.6725496,112.668401 46.5633544,119.307372 45.9692897,121.3863 C45.0779967,124.504599 46.8604847,127.623084 50.1282977,128.189954 C53.3960128,129.040493 56.6639237,127.339509 57.5550207,124.221117 L58.296875,101.469388 Z" id="路径" fill="#0092FF"></path>
            </g>
            <g id="分组-15" transform="translate(39.000000, 57.000000)">
                <rect id="矩形" fill="#FFC82C" x="0" y="3.55555556" width="37.2727273" height="36.4444444"></rect>
                <rect id="矩形" stroke="#13161A" x="3.22727273" y="0.5" width="36.2727273" height="35.4444444"></rect>
            </g>
            <g id="分组-16" transform="translate(64.000000, 78.000000)">
                <rect id="矩形-copy-17" fill="#0092FF" x="0" y="3.55555556" width="37.2727273" height="36.4444444"></rect>
                <rect id="矩形-copy-18" stroke="#13161A" x="3.22727273" y="0.5" width="36.2727273" height="35.4444444"></rect>
            </g>
            <g id="分组-12-copy-2" transform="translate(351.000000, 88.000000) scale(-1, 1) translate(-351.000000, -88.000000) translate(244.000000, 0.000000)">
                <g id="分组-11" transform="translate(149.762187, 146.636304) scale(-1, 1) rotate(29.000000) translate(-149.762187, -146.636304) translate(136.262187, 120.636304)">
                    <polygon id="路径-9-copy-10" fill="#FFC1C7" points="15.9130062 3.47348132 10.0649852 41.8084649 23.5254268 46.0501792 26.4205861 0"></polygon>
                    <path d="M0,47.9426523 C7.96811325,49.2043011 15.9362265,50.4659498 23.9043398,51.7275986" id="路径-17-copy-7" stroke="#13161A"></path>
                    <path d="M9.90397892,41.0035842 C13.5161627,41.7242148 18.602324,42.545709 25.1624629,43.4680668 L23.9776177,51.0967742 L0,47.2240158 C2.4190397,43.4728567 5.720366,41.3993795 9.90397892,41.0035842 Z" id="矩形-copy-9" fill="#0092FF"></path>
                    <path d="M10.0649852,40.3727599 C15.0974777,41.213859 20.1299703,42.0549582 25.1624629,42.8960573" id="路径-16-copy-7" stroke="#13161A"></path>
                </g>
                <g id="分组-11-copy" transform="translate(186.367979, 115.219990) scale(-1, 1) rotate(84.000000) translate(-186.367979, -115.219990) translate(172.867979, 89.219990)">
                    <polygon id="路径-9-copy-10" fill="#FFC1C7" points="15.9130062 3.47348132 10.0649852 41.8084649 23.5254268 46.0501792 26.4205861 0"></polygon>
                    <path d="M0,47.9426523 C7.96811325,49.2043011 15.9362265,50.4659498 23.9043398,51.7275986" id="路径-17-copy-7" stroke="#13161A"></path>
                    <path d="M9.90397892,41.0035842 C13.5161627,41.7242148 18.602324,42.545709 25.1624629,43.4680668 L23.9776177,51.0967742 L0,47.2240158 C2.4190397,43.4728567 5.720366,41.3993795 9.90397892,41.0035842 Z" id="矩形-copy-9" fill="#0092FF"></path>
                    <path d="M10.0649852,40.3727599 C15.0974777,41.213859 20.1299703,42.0549582 25.1624629,42.8960573" id="路径-16-copy-7" stroke="#13161A"></path>
                </g>
                <polygon id="路径-118" fill="#0092FF" points="94.4117647 125.637263 177.95971 127.510204 186.12605 103.265306 99.3801844 105.034911"></polygon>
                <g id="椭圆形" transform="translate(59.344538, 104.163265)">
                    <mask id="mask-4" fill="white">
                        <use xlink:href="#path-3"></use>
                    </mask>
                    <use id="Mask" fill="#0092FF" xlink:href="#path-3"></use>
                    <ellipse fill="#FFC82C" mask="url(#mask-4)" cx="64.889788" cy="1.58711872" rx="6.58302197" ry="6.66589862"></ellipse>
                </g>
                <g id="分组-7" transform="translate(75.159664, 61.500000) scale(-1, 1) translate(-75.159664, -61.500000) translate(0.159664, 0.000000)">
                    <path d="M11.3329222,40.2154689 C4.11526785,35.8668655 0.345103639,35.5369636 0.0224295767,39.2257632 C-0.300244485,42.9145628 2.85859667,46.2848814 9.49895304,49.336719 L11.3329222,40.2154689 Z" id="路径-12-copy-7" fill="#FFC1C7"></path>
                    <path d="M8.38022486,37.3188003 C8.45986939,41.5356139 8.53951392,45.7524275 8.61915845,49.9692411" id="路径-20-copy-5" stroke="#13161A"></path>
                    <path d="M63.294469,51.1386737 C61.6026558,52.3497373 60.2980899,54.583046 59.3807713,57.8385996 C58.4634526,61.0941531 54.9102692,77.4466948 48.7212208,106.896225 L91.760165,106.896225 C91.760165,77.161395 90.3706941,59.9778796 87.5917523,55.3456784 C84.8128105,50.7134772 79.3077543,48.3895097 71.0765838,48.373776 L63.294469,51.1386737 Z" id="路径-4-copy" fill="#FFC82C"></path>
                    <polygon id="路径-37" fill="#FFC82C" points="61.4429507 64.6359588 64.2198925 51.6565128 36.1803469 57.620042 8.81449505 37.3188003 8.81449505 70.723774 39.2098111 73.3725565"></polygon>
                    <g id="分组-9" transform="translate(64.572015, 82.139565) rotate(15.000000) translate(-64.572015, -82.139565) translate(39.072015, 47.139565)">
                        <g id="分组-10" transform="translate(11.730823, 57.365813) rotate(12.000000) translate(-11.730823, -57.365813) translate(1.730823, 49.365813)">
                            <path d="M18.5472063,3.70510325 C5.3355264,3.910664 -0.323204189,5.72258105 1.57101454,9.1408544 C3.46523326,12.5591277 8.54331413,13.4056776 16.8052572,11.680504 L18.5472063,3.70510325 Z" id="路径-12-copy-5" fill="#FFC1C7" transform="translate(9.880965, 8.126787) rotate(-25.000000) translate(-9.880965, -8.126787) "></path>
                            <path d="M11.8992913,0.38668406 C12.738767,4.60349765 13.5782427,8.82031124 14.4177184,13.0371248" id="路径-20-copy-4" stroke="#13161A"></path>
                        </g>
                        <path d="M34.9378,-1.08092863e-11 C40.6381476,4.24275003 44.5824639,9.5046129 46.770749,15.7855886 C48.9590341,22.0665643 50.0491382,33.9394742 50.0410614,51.4043184 L15.9757084,69.0872213 L15.7401697,42.6686726 L37.4894876,40.5988347 C33.507259,21.66286 31.5612386,10.1720301 31.6514265,6.12634503 C31.7416144,2.08065993 32.8370722,0.0385449169 34.9378,-1.08092863e-11 Z" id="路径-38" fill="#FFC82C"></path>
                        <polyline id="路径-47" stroke="#13161A" transform="translate(27.299252, 37.741372) rotate(24.000000) translate(-27.299252, -37.741372) " points="21.2902877 22.0970317 33.6002754 41.9476773 20.9982276 53.3857124"></polyline>
                        <path d="M42.869855,39.2575632 L42.2237511,55.9324503" id="路径-2" stroke="#13161A"></path>
                    </g>
                    <g id="分组-6" transform="translate(60.442252, 0.000000)">
                        <path d="M18.8588224,48.5283559 C18.8845144,48.7090755 18.8978099,48.8938431 18.8978099,49.08175 C18.8978099,51.2114142 17.1899859,52.9378482 15.0832782,52.9378482 C12.9765705,52.9378482 11.2687464,51.2114142 11.2687464,49.08175 C11.2687464,48.8938431 11.282042,48.7090755 11.3077339,48.5283559 C11.2821618,48.4006806 11.2687464,48.2686135 11.2687464,48.1334131 L11.2687464,44.4212167 C11.2687464,43.3166472 12.1641769,42.4212167 13.2687464,42.4212167 L16.8978099,42.4212167 C18.0023794,42.4212167 18.8978099,43.3166472 18.8978099,44.4212167 L18.8978099,48.1334131 C18.8978099,48.2686135 18.8843946,48.4006806 18.8588224,48.5283559 Z" id="合并形状-copy-6" fill="#FFC1C7" transform="translate(15.083278, 47.679532) rotate(10.000000) translate(-15.083278, -47.679532) "></path>
                        <path d="M11.2045558,51.4035097 C15.2181076,53.0501692 18.0130792,54.5904842 18.9615559,49.5066503" id="路径-11-copy-3" stroke="#13161A"></path>
                        <g id="分组-5-copy-3" transform="translate(17.253249, 32.843635) rotate(10.000000) translate(-17.253249, -32.843635) translate(2.753249, 18.343635)" fill-rule="nonzero">
                            <ellipse id="椭圆形" fill="#2F2E41" cx="14.6637536" cy="14.0298875" rx="13.8786536" ry="14.0298875"></ellipse>
                            <ellipse id="椭圆形" fill="#FFC1C7" cx="12.4908576" cy="15.8310359" rx="12.4908576" ry="12.6269689"></ellipse>
                            <path d="M21.9252458,23.2605398 C16.6861943,28.5566805 8.25576646,28.7588304 2.77420492,23.7197551 C6.21582982,27.5456294 11.4603312,29.1474778 16.421829,27.888202 C20.0886978,26.9575156 23.1615547,24.5755664 25.0183977,21.3711348 C25.6739769,20.2397743 26.1779773,19.0058895 26.5030246,17.697153 C27.7487261,12.6815904 26.1641446,7.37994039 22.3795111,3.90081255 C27.3642681,9.44210595 27.1642972,17.9643991 21.9252458,23.2605398 Z" id="路径" fill="#000000" opacity="0.1"></path>
                        </g>
                        <g id="分组-4-copy-4" transform="translate(18.906847, 30.058371) rotate(10.000000) translate(-18.906847, -30.058371) translate(7.906847, 18.558371)" fill="#2F2E41" fill-rule="nonzero">
                            <path d="M7.12541344,18.527179 C7.32095616,18.2488868 7.5096709,17.9345653 7.68177979,17.5931019 C8.43579071,16.0971466 8.58555257,14.6467347 8.01628227,14.3535163 C7.44701197,14.0602979 6.37428058,15.0353087 5.62026967,16.531264 C5.60865648,16.5543045 5.59718663,16.5773342 5.58586054,16.6003491 C1.70137084,14.5855888 -0.45775586,9.70021143 0.0819461876,5.96296352 C0.639322674,2.1033263 6.84140661,1.2735998 9.70971721,0.289732762 C12.5780278,-0.694134276 13.7027455,3.02468444 17.8290824,4.90776136 C21.9554193,6.79083828 21.3857018,15.146635 20.667689,18.0534246 C19.9496762,20.9602143 18.6716546,22.5844315 16.6825497,22.7413206 C14.9939805,22.8745051 9.79690701,21.4980183 7.12541344,18.527179 Z" id="合并形状"></path>
                        </g>
                        <path d="" id="路径-24-copy-3" stroke="#979797"></path>
                        <path d="M29.0252594,15.0763714 C38.0813538,7.79358729 47.1139568,5.950213 56.1230684,9.54624851 C69.6367359,14.9403018 77.611464,20.6790498 81.6940704,31.1698696 C85.7766769,41.6606894 77.2183897,54.4197968 65.4118647,48.7319213 C53.6053397,43.0440458 59.6555231,29.8893724 49.0053772,27.1238563 C41.9052799,25.2801789 35.9376385,21.8503324 31.1024531,16.834317 L29.0252594,15.0763714 Z" id="路径-25-copy-3" fill="#2D2C3E" transform="translate(55.875927, 28.949196) rotate(-19.000000) translate(-55.875927, -28.949196) "></path>
                    </g>
                </g>
                <path d="M139.95766,123.918367 L132.176471,111.346939" id="路径-119" stroke="#13161A"></path>
            </g>
            <g id="分组-17" transform="translate(0.000000, 187.000000)">
                <g id="分组-14" transform="translate(0.000000, 3.595960)">
                    <g id="分组-11-copy-2" transform="translate(68.197379, 142.516486) rotate(68.000000) translate(-68.197379, -142.516486) translate(58.197379, 108.516486)">
                        <polygon id="路径-9-copy-10" fill="#FFC1C7" points="7.858657 4.07830739 1.46031075 46.7356331 16.1874408 51.4556087 19.3550476 0.213184464"></polygon>
                        <path d="M1.44372006,46.0057755 C5.29702396,46.8401911 10.7226963,47.7913963 17.7207369,48.8593911 L17.2534977,65.0260602 L7.28140917,67.0267858 C1.30136491,52.8733624 -0.644531462,45.866359 1.44372006,46.0057755 Z" id="矩形-copy-9" fill="#313B40"></path>
                        <path d="M1.63993447,45.4414648 C7.00835552,46.3404547 12.3767766,47.2394446 17.7451976,48.1384345" id="路径-16-copy-7" stroke="#13161A"></path>
                    </g>
                    <g id="分组-11" transform="translate(57.412005, 148.982828) scale(-1, 1) rotate(60.000000) translate(-57.412005, -148.982828) translate(47.412005, 114.982828)">
                        <polygon id="路径-9-copy-10" fill="#FFC1C7" points="7.858657 4.07830739 1.46031075 46.7356331 16.1874408 51.4556087 19.3550476 0.213184464"></polygon>
                        <path d="M1.44372006,46.0057755 C5.29702396,46.8401911 10.7226963,47.7913963 17.7207369,48.8593911 L17.2534977,65.0260602 L7.28140917,67.0267858 C1.30136491,52.8733624 -0.644531462,45.866359 1.44372006,46.0057755 Z" id="矩形-copy-9" fill="#4D5761"></path>
                        <path d="M1.63993447,45.4414648 C7.00835552,46.3404547 12.3767766,47.2394446 17.7451976,48.1384345" id="路径-16-copy-7" stroke="#13161A"></path>
                    </g>
                    <polygon id="路径-129" fill="#2F2E41" points="60.8421053 112.373737 11.6315789 114.103962 4.47368421 129.454545 36.2929815 172.215008 59.0526316 137.695486 78.5241714 133.050505 91.2201258 157.236741 119 142.040404 119 126.757576 103.789474 118.666667"></polygon>
                    <path d="M59.0526316,137.695486 L70.1036307,146.518069" id="路径-130" stroke="#13161A"></path>
                    <polyline id="路径-131" stroke="#FFFFFF" stroke-linejoin="round" points="57.9443314 130.488772 30.774262 123.282058 59.0526316 137.695486"></polyline>
                    <path d="M78.5241714,133.050505 L94.8421053,126.757576" id="路径-132" stroke="#FFFFFF"></path>
                    <g id="分组-13" transform="translate(20.912258, 45.886507) rotate(17.000000) translate(-20.912258, -45.886507) translate(3.912258, 31.386507)">
                        <path d="M26.3504935,25.4864799 C24.4245046,22.5630986 8.99698942,19.1394382 10.2632644,8.47605279 C11.1074478,1.36712918 18.3463005,4.65852888 31.9798228,18.3502519 C29.5109292,25.0566582 27.6344861,27.4354008 26.3504935,25.4864799 Z" id="路径-65" fill="#FFC1C7" transform="translate(21.084655, 15.488212) rotate(12.000000) translate(-21.084655, -15.488212) "></path>
                        <g id="分组-9" transform="translate(13.420986, 10.956514) rotate(-1.000000) translate(-13.420986, -10.956514) translate(0.920986, 0.956514)">
                            <polygon id="路径-66" fill="#13161A" transform="translate(12.296107, 10.280779) rotate(-6.000000) translate(-12.296107, -10.280779) " points="0.896573603 5.32492218 9.83807203 1.79964153 23.6956409 15.4693221 15.2064944 18.7619165"></polygon>
                            <polygon id="路径-66-copy" stroke="#13161A" fill="#FFFFFF" transform="translate(13.383847, 9.960737) rotate(-6.000000) translate(-13.383847, -9.960737) " points="2.64882962 5.23382087 11.0691436 1.87149693 24.118865 14.9095838 16.1245365 18.0499768"></polygon>
                        </g>
                        <ellipse id="椭圆形" fill="#FFC1C7" transform="translate(19.102314, 9.083210) rotate(-92.000000) translate(-19.102314, -9.083210) " cx="19.1023137" cy="9.08321025" rx="1.79796954" ry="3.57896809"></ellipse>
                    </g>
                    <path d="M70.2368421,40.4545455 L50.1052632,45.0115916 L44.608672,118.666667 L104.684211,122.262626 L109.157895,55.7373737 C96.2796199,47.1356076 86.4375147,41.4985075 79.6315789,38.8260735 C72.8256432,36.1536394 69.6940643,36.6964634 70.2368421,40.4545455 Z" id="路径-123" fill="#0092FF"></path>
                    <g id="分组-12" transform="translate(55.368421, 0.000000)">
                        <path d="M24.6845757,41.9957269 C24.6950353,42.1273384 24.7003655,42.2604026 24.7003655,42.3947177 C24.7003655,45.125459 22.4971352,47.3391622 19.7793129,47.3391622 C17.0614906,47.3391622 14.8582603,45.125459 14.8582603,42.3947177 C14.8582603,42.2604026 14.8635905,42.1273384 14.8740501,41.9957269 C14.8636298,41.9130187 14.8582603,41.8287377 14.8582603,41.7432026 L14.8582603,35.8543137 C14.8582603,34.7497442 15.7536908,33.8543137 16.8582603,33.8543137 L22.7003655,33.8543137 C23.804935,33.8543137 24.7003655,34.7497442 24.7003655,35.8543137 L24.7003655,41.7432026 C24.7003655,41.8287377 24.694996,41.9130187 24.6845757,41.9957269 Z" id="合并形状-copy" fill="#FFC1C7" transform="translate(19.779313, 40.596738) rotate(10.000000) translate(-19.779313, -40.596738) "></path>
                        <path d="M14.4210526,44.8837065 C19.5134594,47.0141987 23.0597278,49.0070995 24.2631579,42.429499" id="路径-11-copy-2" stroke="#13161A"></path>
                        <g id="分组-5-copy-2" transform="translate(21.830420, 21.752310) rotate(10.000000) translate(-21.830420, -21.752310) translate(3.830420, 3.752310)" fill-rule="nonzero">
                            <ellipse id="椭圆形" fill="#4D5761" cx="18.0422398" cy="17.8228862" rx="17" ry="17.0808081"></ellipse>
                            <ellipse id="椭圆形" fill="#FFC1C7" cx="16.1142105" cy="19.400202" rx="16.1142105" ry="16.1908081"></ellipse>
                            <path d="M28.2853297,28.9266111 C21.5265322,35.717536 10.6506024,35.9767408 3.57894737,29.5154355 C8.01892018,34.4211256 14.7847485,36.4750801 21.1854796,34.860386 C25.9160351,33.6670224 29.8802676,30.6127912 32.2757443,26.5039399 C33.1214942,25.0532639 33.7716952,23.4711272 34.1910323,21.7930125 C35.7980875,15.3618561 33.75385,8.56386692 28.8713684,4.10278907 C35.3021057,11.2080587 35.0441272,22.1356862 28.2853297,28.9266111 Z" id="路径" fill="#000000" opacity="0.1"></path>
                        </g>
                        <path d="M18.5368421,8.6046176 C15.8526316,11.3015873 17.1052632,14.3838384 16.2105263,14.3838384 C15.3157895,14.3838384 24.2100403,16.1758217 21.730264,23.6798553 C21.3341582,24.8785085 21.3916184,26.2747857 21.9026446,27.8686869 L23.3684211,27.8686869 C23.3684211,23.0740741 24.2631579,20.6767677 26.0526316,20.6767677 C28.7368421,20.6767677 28.6125065,23.3737374 27.8421053,27.8686869 C27.7175614,28.5953453 27.5355309,29.3605679 27.2960137,30.1643546 C26.7972027,31.8382962 28.1327916,33.7322754 31.3027805,35.8462923 C36.0335315,32.9251951 39.234359,27.4405964 40.9052632,19.3924964 C44.2983643,3.04923817 21.2210526,5.90764791 18.5368421,8.6046176 Z" id="路径-122" fill="#4D5761"></path>
                    </g>
                    <polygon id="路径-124" fill="#0092FF" points="50.1052632 48.0953234 45.6315789 72.8181818 40.2631579 74.7669353 35.4860645 48.5454545 1.78947368 69.2222222 22.3215324 94.3939394 52.7894737 96.1919192 56.3684211 80.9090909"></polygon>
                    <path d="M15.155975,59.9461095 L33.5832461,49.8939394" id="路径-67" stroke="#13161A"></path>
                    <polyline id="路径-128" stroke="#13161A" points="44.608672 96.1919192 54.5789474 96.1919192 56.3684211 53.1634453"></polyline>
                    <path d="M65.5386936,109.009152 C63.6195573,106.095021 52.2463492,101.02822 52.2633046,93.0638296 C52.2746081,87.7542359 57.6062989,89.3250657 68.2583768,97.7763191 C67.7246789,107.207628 66.8181179,110.951906 65.5386936,109.009152 Z" id="路径-65-copy" fill="#FFC1C7" transform="translate(60.260831, 99.748844) rotate(-32.000000) translate(-60.260831, -99.748844) "></path>
                    <polygon id="路径-126" fill="#0092FF" points="96.0770133 58.4343434 84.0644214 91.6969697 61.7368421 91.6969697 60.2531973 124.659328 111.842105 102.484848 109.157895 58.4343434"></polygon>
                    <path d="M60.7871307,107.429293 L61.8570907,91.2474747" id="路径-67-copy" stroke="#13161A"></path>
                    <polyline id="路径-127" stroke="#13161A" points="65.9978556 93.8379946 96.0770133 91.2474747 96.0770133 62.7004196"></polyline>
                    <path d="M71.5154251,120.464646 C71.9655451,119.265993 83.0218069,114.171717 104.684211,105.181818" id="路径-9" stroke="#13161A"></path>
                </g>
                <path d="M62.9028862,15.9891775 C59.0853424,10.466811 58.9660441,6.20731121 62.5449915,3.21067821 C66.1239389,0.214045214 67.6151669,-0.684944685 67.0186757,0.513708514 L66.1239389,2.31168831 L69.7028862,0.513708514 L67.9134126,3.21067821 C73.2818336,2.43376656 77.4572722,2.43376656 80.4397284,3.21067821 C84.9134126,4.37604569 92.1265687,6.29292929 95.1134126,11.6868687 C97.1046418,15.2828283 97.5162778,19.8239039 96.3483206,25.3100954 C92.109884,24.2760443 88.0818937,22.1322751 84.2643499,18.8787879 C78.5380341,13.998557 79.9028862,12.5858586 72.7449915,12.5858586 C67.9730617,12.5858586 64.6923599,13.7202982 62.9028862,15.9891775 Z" id="路径-123-copy-4" fill="#2F2E41"></path>
            </g>
            <g id="分组-9" transform="translate(7.000000, 157.000000)">
                <path d="M5.70731707,2.71428571 L34,2.71428571 C35.6568542,2.71428571 37,4.05743146 37,5.71428571 L37,28.9867996 C37,30.6436538 35.6568542,31.9867996 34,31.9867996 L31.5853659,31.9867996 L31.5853659,37.415371 L22.8457822,31.9867996 L5.70731707,31.9867996 C4.05046282,31.9867996 2.70731707,30.6436538 2.70731707,28.9867996 L2.70731707,5.71428571 C2.70731707,4.05743146 4.05046282,2.71428571 5.70731707,2.71428571 Z" id="矩形" fill="#FFC82C"></path>
                <path d="M28.3780488,33.8019063 L28.3780488,28.7725139 L31.2926829,28.7725139 C32.6733948,28.7725139 33.7926829,27.6532257 33.7926829,26.2725139 L33.7926829,3 C33.7926829,1.61928813 32.6733948,0.5 31.2926829,0.5 L3,0.5 C1.61928813,0.5 0.5,1.61928813 0.5,3 L0.5,26.2725139 C0.5,27.6532257 1.61928813,28.7725139 3,28.7725139 L20.2811127,28.7725139 L28.3780488,33.8019063 Z" id="矩形-copy-44" stroke="#13161A"></path>
                <g id="锁定-2" transform="translate(11.731707, 9.952381)" fill="#FFFFFF" fill-rule="nonzero">
                    <g id="锁定">
                        <path d="M3.93670928,5.79354969 L1.9605126,5.79354969 L1.9605126,3.53452635 C1.9605126,3.04276616 2.05984523,2.58430224 2.2585105,2.15913457 C2.45717578,1.7339669 2.73164754,1.36002426 3.08192579,1.03730664 C3.43220405,0.714589022 3.8452187,0.461025174 4.32096975,0.276615098 C4.7967208,0.0922050228 5.31691014,-1.00148913e-08 5.88153777,0 C6.38342899,0 6.86702209,0.0922050328 7.33231708,0.276615098 C7.79761207,0.461025164 8.21062673,0.714589012 8.57136104,1.03730664 C8.93209535,1.36002427 9.21963719,1.73396691 9.43398657,2.15913457 C9.64833595,2.58430223 9.75551063,3.04276615 9.75551063,3.53452635 L9.75551063,5.79354969 L7.85773445,5.79354969 L7.85773445,3.9648165 C7.85773445,3.31938126 7.67475328,2.81993732 7.30879092,2.46648468 C6.94282857,2.11303204 6.44616539,1.93630572 5.81880137,1.93630573 C5.25417374,1.93630573 4.79933483,2.11303205 4.45428461,2.46648468 C4.10923439,2.81993731 3.93670928,3.31938125 3.93670928,3.9648165 L3.93670928,5.79354969 Z M10.6965567,6.71560004 C10.9788705,6.71560004 11.221974,6.81548883 11.4258674,7.0152664 C11.6297607,7.21504398 11.7317073,7.45324032 11.7317073,7.72985543 L11.7317073,12.4937822 C11.7317073,12.7703973 11.682041,13.0290837 11.5827084,13.2698413 C11.4833757,13.5105989 11.3474468,13.7206214 11.1749217,13.899909 C11.0023966,14.0791966 10.7985033,14.2200654 10.5632418,14.3225154 C10.3279803,14.4249655 10.0691926,14.4761905 9.78687882,14.4761905 L1.86640798,14.4761905 C1.58409417,14.4761905 1.32792052,14.4249655 1.09788705,14.3225154 C0.867853581,14.2200654 0.671802324,14.0843191 0.509733283,13.9152765 C0.347664241,13.746234 0.222191434,13.5490176 0.13331486,13.3236276 C0.0444382867,13.0982375 0,12.8574799 0,12.6013548 L0,7.72985544 C0,7.45324033 0.0993326352,7.21504399 0.297997906,7.01526642 C0.496663176,6.81548884 0.737152719,6.71560005 1.01946653,6.71560005 L1.96051257,6.71560005 L3.93670925,6.71560005 L7.85773442,6.71560005 L9.7555106,6.71560005 L10.6965566,6.71560005 L10.6965567,6.71560004 Z" id="形状"></path>
                    </g>
                </g>
            </g>
            <g id="分组-9-copy" transform="translate(261.000000, 34.000000)">
                <path d="M5.70731707,2.71428571 L34,2.71428571 C35.6568542,2.71428571 37,4.05743146 37,5.71428571 L37,28.9867996 C37,30.6436538 35.6568542,31.9867996 34,31.9867996 L31.5853659,31.9867996 L31.5853659,37.415371 L22.8457822,31.9867996 L5.70731707,31.9867996 C4.05046282,31.9867996 2.70731707,30.6436538 2.70731707,28.9867996 L2.70731707,5.71428571 C2.70731707,4.05743146 4.05046282,2.71428571 5.70731707,2.71428571 Z M19.8536462,13.5673377 C19.8527552,13.3273108 19.7566952,13.0974922 19.5866414,12.9285425 C19.4165876,12.7595928 19.1865014,12.6653828 18.9471023,12.6666799 C18.7077083,12.6675533 18.4784889,12.7638478 18.3099778,12.9343345 C18.1414666,13.1048211 18.0475,13.3355012 18.0487937,13.5755194 C18.049645,13.8155326 18.1456717,14.0453516 18.3157018,14.2143056 C18.4857318,14.3832596 18.7158026,14.4774743 18.9551878,14.4761773 C19.1945955,14.4753037 19.42383,14.379014 19.592365,14.2085318 C19.7608999,14.0380495 19.8548999,13.8073698 19.8536462,13.5673377 Z M23.866103,9.53283969 C22.0422403,9.53283969 20.3942307,9.01833099 19.0079952,8.14285714 C17.623988,9.01833099 15.8730334,9.53283969 14.0490816,9.53283969 C13.2680373,9.53283969 12.5063342,9.4368194 11.7317073,9.26015986 L11.7317073,17.26025 C11.9892033,20.4050033 14.5619344,23.2502266 18.9502391,25.3333333 C23.3404155,23.2502266 26.1707317,20.4050033 26.1707317,17.26025 L26.1707317,9.22761965 C25.3960157,9.42535031 24.6944752,9.53283969 23.866103,9.53283969 Z M19.6916206,22.4383217 L18.2633159,22.4447231 L18.2339922,15.9643318 C17.2024932,15.6601786 16.4461379,14.7116227 16.4346402,13.5832065 C16.4284011,12.2089606 17.5483168,11.0817891 18.9259067,11.0755656 C20.3099139,11.0630296 21.433573,12.1737532 21.4399012,13.5606239 C21.4478325,14.6651673 20.7233458,15.6421367 19.6622078,15.9578415 L19.6787859,19.5888308 L21.4608467,19.5807402 L21.4640554,20.2993809 L19.6842228,20.8118448 L19.6916206,22.4383217 Z" id="合并形状" fill="#13CE66"></path>
                <path d="M28.3780488,33.8019063 L28.3780488,28.7725139 L31.2926829,28.7725139 C32.6733948,28.7725139 33.7926829,27.6532257 33.7926829,26.2725139 L33.7926829,3 C33.7926829,1.61928813 32.6733948,0.5 31.2926829,0.5 L3,0.5 C1.61928813,0.5 0.5,1.61928813 0.5,3 L0.5,26.2725139 C0.5,27.6532257 1.61928813,28.7725139 3,28.7725139 L20.2811127,28.7725139 L28.3780488,33.8019063 Z" id="矩形-copy-44" stroke="#13161A"></path>
            </g>
            <path d="M26,141 L26.3754404,48 L244,48" id="路径-133" stroke="#13CE66" stroke-width="3" stroke-linecap="round" stroke-linejoin="round" stroke-dasharray="5"></path>
            <polygon id="矩形" fill="#13CE66" transform="translate(248.582541, 47.476380) rotate(-225.000000) translate(-248.582541, -47.476380) " points="242.351319 41.2451577 254.813764 45.6164697 246.722631 53.7076027"></polygon>
            <polygon id="矩形-copy-2" fill="#13CE66" transform="translate(26.769959, 144.573080) rotate(-135.000000) translate(-26.769959, -144.573080) " points="20.5363602 138.339481 33.0035586 142.724327 24.9212057 150.80668"></polygon>
            <g id="分组-15" transform="translate(204.000000, 61.000000)">
                <g id="分组-19-copy" transform="translate(27.000000, 29.000000) scale(-1, 1) translate(-27.000000, -29.000000) ">
                    <g id="分组-13" transform="translate(3.375000, 23.487281)">
                        <path d="M12.3246211,8.01576118 C24.2905302,11.3960336 30.2734848,18.3841284 30.2734848,28.9800456" id="路径-60" stroke="#13161A" stroke-width="2"></path>
                        <ellipse id="椭圆形" fill="#FF3B30" transform="translate(7.938920, 6.424539) rotate(-1.000000) translate(-7.938920, -6.424539) " cx="7.93892045" cy="6.42453877" rx="5.86786167" ry="5.74830835"></ellipse>
                        <ellipse id="椭圆形-copy-8" stroke="#313B40" stroke-width="0.5" transform="translate(6.558239, 7.100806) rotate(-1.000000) translate(-6.558239, -7.100806) " cx="6.55823864" cy="7.100806" rx="5.86786167" ry="5.74830835"></ellipse>
                    </g>
                    <g id="分组-13-copy" transform="translate(26.965354, 26.346676) rotate(42.000000) translate(-26.965354, -26.346676) translate(4.965354, 11.346676)">
                        <path d="M12.2032817,8.04879316 C20.9450158,5.95513136 31.4992926,13.0836675 43.8661119,29.4344017" id="路径-60" stroke="#13161A" stroke-width="2"></path>
                        <ellipse id="椭圆形" fill="#FF3B30" transform="translate(7.860759, 6.451014) rotate(-1.000000) translate(-7.860759, -6.451014) " cx="7.86075949" cy="6.45101351" rx="5.81011496" ry="5.77197108"></ellipse>
                        <ellipse id="椭圆形-copy-8" stroke="#313B40" stroke-width="0.5" transform="translate(6.493671, 7.130068) rotate(-1.000000) translate(-6.493671, -7.130068) " cx="6.49367089" cy="7.13006757" rx="5.81011496" ry="5.77197108"></ellipse>
                    </g>
                    <ellipse id="椭圆形" fill="#13CE66" transform="translate(37.299239, 45.871293) rotate(18.000000) translate(-37.299239, -45.871293) " cx="37.2992389" cy="45.8712935" rx="3.07407656" ry="9.51276158"></ellipse>
                    <ellipse id="椭圆形-copy-9" fill="#13CE66" transform="translate(28.607854, 48.816678) rotate(-48.000000) translate(-28.607854, -48.816678) " cx="28.6078537" cy="48.8166782" rx="3.06493061" ry="8.85994598"></ellipse>
                </g>
                <g id="分组-9-copy" transform="translate(11.700000, 47.986486)">
                    <g id="路径-2" transform="translate(0.248276, 0.246929)">
                        <mask id="mask-6" fill="white">
                            <use xlink:href="#path-5"></use>
                        </mask>
                        <use id="Mask" fill="#7C868D" xlink:href="#path-5"></use>
                        <polygon fill="#4D5761" mask="url(#mask-6)" points="15.5831654 -1.23333139 15.5831654 18.4999708 23.0215758 6.16665693 21.7818407 0.0970412812"></polygon>
                    </g>
                </g>
            </g>
        </g>
    </g>
</svg>