<?xml version="1.0" encoding="UTF-8"?>
<svg width="435px" height="280px" viewBox="0 0 435 280" version="1.1" xmlns="http://www.w3.org/2000/svg" xmlns:xlink="http://www.w3.org/1999/xlink">
    <!-- Generator: Sketch 53.2 (72643) - https://sketchapp.com -->
    <title>文档</title>
    <desc>Created with Sketch.</desc>
    <defs>
        <polygon id="path-1" points="100 12.1191426 36 -1.13686838e-13 0 78.6814386 62.5746629 82.8407193 62.5746629 35.0521488 111.268256 41 144.673742 141.737907 216.781276 138.737907 131.923582 18.8824989"></polygon>
        <polygon id="path-3" points="0 0.193643106 38.9927969 0.193643106 30.8692976 34.6487291 8.20900988 34.6487291"></polygon>
    </defs>
    <g id="页面-1" stroke="none" stroke-width="1" fill="none" fill-rule="evenodd">
        <g id="文档" transform="translate(0.000000, -2.000000)">
            <g id="分组-15" transform="translate(37.000000, 45.000000)">
                <rect id="矩形" fill="#0092FF" x="0" y="0" width="110" height="152"></rect>
                <g id="分组-14" transform="translate(7.000000, 5.000000)">
                    <rect id="矩形" stroke="#13161A" fill="#FFFFFF" x="0.5" y="0.5" width="112" height="150"></rect>
                    <g id="图表-_饼图" transform="translate(23.000000, 19.000000)" fill-rule="nonzero">
                        <path d="M29.2378449,34.3000001 L50,55.2475115 C47.3061761,58.0316744 44.152431,60.1529414 40.6044678,61.677602 C36.9908016,63.2022627 33.1800263,63.9977378 29.2378449,63.9977378 C24.1130092,64.0640274 19.0538765,62.6719459 14.586071,60.0203622 C10.1839685,57.4350681 6.50459921,53.7228509 3.94218134,49.2814481 C1.31406045,44.7737558 0,39.6694571 0,34.4988689 C0,29.1957015 1.31406045,24.223982 3.94218134,19.7162897 C6.50459921,15.2748869 10.1839685,11.5626697 14.586071,8.97737558 C19.0538765,6.32579186 24.1130092,5 29.2378449,5 L29.2378449,34.3000001 Z" id="路径" fill="#42B983"></path>
                        <path d="M64,29 L34,29 L34,0 C39.4606742,0 44.4494382,1.30337079 49.0337079,3.91011236 C53.5505618,6.45168539 57.3258427,10.1011236 59.9550562,14.4674157 C62.6516854,18.8988764 64,23.7213483 64,29 Z" id="路径" fill="#0092FF"></path>
                        <path d="M36,34 L66,34 C66,37.9208861 65.1946309,41.8417722 63.6510067,45.4968354 C62.1073826,49.085443 59.8926174,52.2753165 57.1409396,55 L36,34 Z" id="路径" fill="#FFC82C"></path>
                    </g>
                    <rect id="矩形" fill="#42B983" x="27" y="98" width="15" height="8" rx="1"></rect>
                    <rect id="矩形-copy-14" fill="#FFC82C" x="27" y="113" width="15" height="8" rx="1"></rect>
                    <rect id="矩形-copy-16" fill="#0092FF" x="27" y="128" width="15" height="8" rx="1"></rect>
                    <rect id="矩形-copy-9" fill="#E6E6E6" x="46" y="98" width="43" height="8" rx="1"></rect>
                    <rect id="矩形-copy-15" fill="#E6E6E6" x="46" y="113" width="43" height="8" rx="1"></rect>
                    <rect id="矩形-copy-17" fill="#E6E6E6" x="46" y="128" width="43" height="8" rx="1"></rect>
                </g>
            </g>
            <g id="分组-13" transform="translate(97.000000, 164.000000)">
                <g id="分组-12-copy" transform="translate(16.000000, 0.000000)">
                    <rect id="矩形" fill="#FFE9AB" x="0" y="6" width="141" height="41" rx="3"></rect>
                    <rect id="矩形-copy-13" fill="#98D9B5" x="0" y="0" width="141" height="41"></rect>
                    <rect id="矩形-copy-11" fill="#FFFFFF" x="5" y="6" width="131" height="41" rx="3"></rect>
                    <rect id="矩形-copy-12" fill="#98D9B5" x="0" y="13" width="141" height="41"></rect>
                </g>
                <g id="分组-12" transform="translate(10.000000, 17.000000)">
                    <rect id="矩形" fill="#FFE9AB" x="0" y="6" width="152" height="41" rx="3"></rect>
                    <rect id="矩形-copy-13" fill="#ABDBFF" x="0" y="0" width="152" height="41"></rect>
                    <rect id="矩形-copy-11" fill="#FFFFFF" x="5" y="6" width="142" height="41" rx="3"></rect>
                    <rect id="矩形-copy-12" fill="#ABDBFF" x="0" y="13" width="152" height="41"></rect>
                </g>
                <g id="分组-12" transform="translate(5.000000, 33.000000)">
                    <rect id="矩形" fill="#FFE9AB" x="0" y="6" width="161" height="41" rx="3"></rect>
                    <rect id="矩形-copy-13" fill="#FFE9AB" x="0" y="0" width="161" height="41"></rect>
                    <rect id="矩形-copy-11" fill="#FFFFFF" x="5" y="6" width="151" height="41" rx="3"></rect>
                    <rect id="矩形-copy-12" fill="#FFE9AB" x="0" y="13" width="161" height="41"></rect>
                </g>
                <rect id="矩形" fill="#4D5761" x="0" y="49" width="171" height="68" rx="2"></rect>
                <g id="分组-11" transform="translate(49.000000, 76.000000)" fill="#FFFFFF">
                    <rect id="矩形" x="0" y="5" width="70" height="8" rx="3"></rect>
                    <rect id="矩形" x="0" y="0" width="8" height="13" rx="3"></rect>
                    <rect id="矩形-copy-2" x="65" y="0" width="8" height="13" rx="3"></rect>
                </g>
            </g>
            <g id="分组-22" transform="translate(169.000000, 0.000000)">
                <path d="M161.20045,106.752996 C153.671502,106.752996 137.538042,97.7072945 137.538042,106.752996 C137.538042,115.798697 149.369246,121.811548 159.049322,121.811548 C168.729398,121.811548 168.729398,106.752996 161.20045,106.752996 Z" id="路径-12-copy-4" fill="#FFC1C7"></path>
                <path d="M141.17123,106.366753 C143.896121,107.275271 146.621012,108.183788 149.345903,109.092305" id="路径-13-copy-2" stroke="#13161A"></path>
                <path d="M142.079527,110.90934 C144.198887,111.515018 146.318246,112.120697 148.437606,112.726375" id="路径-14-copy-2" stroke="#13161A"></path>
                <path d="M142.987824,113.634892 C144.804418,113.937731 146.621012,114.24057 148.437606,114.54341" id="路径-15-copy-2" stroke="#13161A"></path>
                <path d="M154.934769,105.458236 C155.144812,110.90934 155.354854,116.360444 155.564896,121.811548" id="路径-20-copy-2" stroke="#13161A"></path>
                <g id="分组-10" transform="translate(198.403391, 234.117960) rotate(-23.000000) translate(-198.403391, -234.117960) translate(169.403391, 181.117960)">
                    <polygon id="路径-9-copy-6" fill="#FFC1C7" points="36.888784 3.97903932e-13 22.5837746 86.4903132 40.1167022 94.398509 57.7796137 7.2681388"></polygon>
                    <g id="分组-7" transform="translate(22.367121, 91.338350) rotate(18.000000) translate(-22.367121, -91.338350) translate(2.367121, 83.338350)">
                        <path d="M14.5327511,1.8170347 C20.588064,2.04019942 29.0655022,2.04019942 39.9650655,1.8170347 L39.9650655,14.5362776 L0,14.5362776 C2.98599604,7.79958399 7.8302464,3.55983635 14.5327511,1.8170347 Z" id="矩形-copy-4" fill="#0092FF"></path>
                        <path d="M14.5327511,0.341669572 C23.0101892,0.416728974 31.4876274,0.491788376 39.9650655,0.566847778" id="路径-16-copy-3" stroke="#13161A"></path>
                        <path d="M0,14.932475 C13.3216885,14.9711825 26.643377,15.00989 39.9650655,15.0485976" id="路径-17-copy-3" stroke="#13161A"></path>
                    </g>
                </g>
                <g id="分组-10-copy" transform="translate(67.000000, 178.694597) rotate(-14.000000) translate(-67.000000, -178.694597) translate(34.000000, 137.694597)">
                    <polygon id="路径-9-copy-6" fill="#FFC1C7" points="44.9430618 0.472280353 22.5837746 62.4903132 40.1167022 70.398509 65.8338915 7.74041915"></polygon>
                    <g id="分组-7" transform="translate(22.367121, 67.338350) rotate(18.000000) translate(-22.367121, -67.338350) translate(2.367121, 59.338350)">
                        <path d="M14.5327511,1.8170347 C20.588064,2.04019942 29.0655022,2.04019942 39.9650655,1.8170347 L39.9650655,14.5362776 L0,14.5362776 C2.98599604,7.79958399 7.8302464,3.55983635 14.5327511,1.8170347 Z" id="矩形-copy-4" fill="#0092FF"></path>
                        <path d="M14.5327511,0.341669572 C23.0101892,0.416728974 31.4876274,0.491788376 39.9650655,0.566847778" id="路径-16-copy-3" stroke="#13161A"></path>
                        <path d="M0,14.932475 C13.3216885,14.9711825 26.643377,15.00989 39.9650655,15.0485976" id="路径-17-copy-3" stroke="#13161A"></path>
                    </g>
                </g>
                <g id="椭圆形" transform="translate(40.061443, 102.929050)">
                    <mask id="mask-2" fill="white">
                        <use xlink:href="#path-1"></use>
                    </mask>
                    <use id="Mask" fill="#0092FF" xlink:href="#path-1"></use>
                    <circle fill="#FFC82C" mask="url(#mask-2)" cx="123" cy="93" r="11"></circle>
                    <circle fill="#FFC82C" mask="url(#mask-2)" cx="38" cy="4" r="12"></circle>
                </g>
                <path d="M117.169892,36.1651207 C126.259157,40.975458 131.466723,42.9503797 132.792589,42.0898859 C134.118455,41.229392 132.793162,37.5763889 128.816711,31.1308767 C123.151241,29.5282298 119.747384,27.8183891 118.60514,26.0013544 C116.891773,23.2758023 115.628931,13.9031614 111.434486,15.0201474 C107.240042,16.1371334 105.982756,20.6798688 107.971555,26.9316725 C109.297421,31.0995416 112.363533,34.1773577 117.169892,36.1651207 Z" id="路径-86" fill="#FFC1C7" transform="translate(120.169251, 28.606956) rotate(102.000000) translate(-120.169251, -28.606956) "></path>
                <path d="M113.044298,20.6383431 L113.044298,41.5342422" id="路径-87" stroke="#13161A" transform="translate(113.044298, 31.086293) rotate(95.000000) translate(-113.044298, -31.086293) "></path>
                <path d="M128.455073,58.8898252 C127.24401,61.3084835 126.638479,64.6341388 126.638479,68.8667909 C126.638479,73.099443 124.1128,88.3249826 119.061443,114.54341 L179.834582,132.92905 C176.688347,96.747666 174.59124,75.9314222 173.543261,70.4803181 C171.971292,62.303662 168.418184,54.7502242 159.337169,55.6372671 C153.283159,56.2286291 147.530612,56.5309614 142.079527,56.544264 L128.455073,58.8898252 Z" id="路径-4" fill="#FFC82C"></path>
                <polygon id="路径-82" fill="#FFC82C" transform="translate(96.638389, 57.919614) rotate(44.000000) translate(-96.638389, -57.919614) " points="124.927362 29.3900376 98.5867504 54.7880151 100.160159 19.6755295 64.6114038 47.1785937 86.8928247 96.1636982 128.665373 42.2964308"></polygon>
                <g id="分组-9" transform="translate(123.459122, 44.500000) rotate(-101.000000) translate(-123.459122, -44.500000) translate(106.959122, -78.000000)">
                    <rect id="矩形" fill="#0092FF" x="0.679056352" y="34.1973368" width="32" height="210"></rect>
                    <path d="M0.910456572,33.095647 L31.3142674,33.095647 L16.112362,1.741717 L0.910456572,33.095647 Z" id="路径" stroke="#13161A"></path>
                </g>
                <g id="分组-6" transform="translate(248.705640, 136.508004) rotate(-113.000000) translate(-248.705640, -136.508004) translate(234.205640, 126.008004)">
                    <path d="M11.5838812,13.7238072 C19.9810321,15.444795 24.8425404,15.8750419 26.1684064,15.014548 C27.4942723,14.1540542 28.1572052,12.3320018 28.1572052,9.54839085 C22.6327639,7.40105645 19.8705432,5.30657444 19.8705432,3.26494482 C19.8705432,1.2233152 16.2244119,0.142921103 8.93214937,0.0237625323 C1.86086445,-0.241235776 -1.01184505,1.71019963 0.314020876,5.87806876 C1.6398868,10.0459379 5.39650691,12.661184 11.5838812,13.7238072 Z" id="路径-86-copy" fill="#FFC1C7"></path>
                    <path d="M18.1659389,1.13686838e-13 L18.1659389,20.8958991" id="路径-87-copy" stroke="#13161A"></path>
                </g>
                <polygon id="路径-81" fill="#FFC82C" points="169.280202 59.1238512 259.061443 127.326452 211.061443 147.947178 159.050962 68.2441746"></polygon>
                <path d="M153.407879,55.0639437 C153.417847,55.1928635 153.422924,55.3231548 153.422924,55.454632 C153.422924,58.2143135 151.186303,60.4514774 148.427291,60.4514774 C145.668279,60.4514774 143.431658,58.2143135 143.431658,55.454632 C143.431658,55.3231548 143.436734,55.1928635 143.446702,55.0639437 C143.436771,54.9831569 143.431658,54.9008796 143.431658,54.817408 L143.431658,48.8237171 C143.431658,47.7191476 144.327088,46.8237171 145.431658,46.8237171 L151.422924,46.8237171 C152.527493,46.8237171 153.422924,47.7191476 153.422924,48.8237171 L153.422924,54.817408 C153.422924,54.9008796 153.41781,54.9831569 153.407879,55.0639437 Z" id="合并形状-copy-8" fill="#FFC1C7" transform="translate(148.427291, 53.637597) rotate(10.000000) translate(-148.427291, -53.637597) "></path>
                <path d="M142.987824,57.9699989 C148.157408,60.1230699 151.757422,62.1370914 152.97909,55.4897818" id="路径-11-copy-3" stroke="#13161A"></path>
                <g id="分组-5-copy-3" transform="translate(151.329699, 34.129680) rotate(10.000000) translate(-151.329699, -34.129680) translate(132.329699, 15.629680)" fill-rule="nonzero">
                    <ellipse id="椭圆形" fill="#2F2E41" cx="19.2041223" cy="18.1803407" rx="18.1759301" ry="18.1803407"></ellipse>
                    <ellipse id="椭圆形" fill="#FFC1C7" cx="16.3584279" cy="20.5143218" rx="16.3584279" ry="16.3623975"></ellipse>
                    <path d="M28.7140054,30.1416913 C21.8527755,37.004586 10.8120167,37.2665379 3.63318777,30.736756 C8.14045018,35.6944363 15.0088174,37.7701586 21.5065542,36.1383521 C26.3088032,34.9323412 30.3331153,31.8457415 32.7648964,27.6933448 C33.6234639,26.2272946 34.283519,24.6283904 34.7092114,22.9324912 C36.340622,16.4331776 34.2654033,9.56314372 29.3089258,5.05478758 C35.8371235,12.2353585 35.5752352,23.2787965 28.7140054,30.1416913 Z" id="路径" fill="#000000" opacity="0.1"></path>
                </g>
                <g id="分组-4-copy-5" transform="translate(174.837790, 19.677839) rotate(10.000000) translate(-174.837790, -19.677839) translate(158.337790, 2.677839)" fill-rule="nonzero">
                    <g id="分组-3" transform="translate(0.873852, 0.000000)">
                        <g id="分组-2">
                            <ellipse id="椭圆形" fill="#2F2E41" cx="15.1229017" cy="15.7502597" rx="12.7234236" ry="12.726511"></ellipse>
                            <g id="分组">
                                <path d="M2.44670955,14.8408339 C2.42581872,15.1424616 2.4003864,15.4431809 2.4003864,15.7493512 C2.4594031,22.7358041 8.1383486,28.3683353 15.1233558,28.3683353 C22.1083631,28.3683353 27.7873086,22.7358041 27.8463253,15.7493512 C27.8463253,15.4422724 27.8218013,15.1415531 27.8000021,14.8408339 C27.3268922,21.4958941 21.793146,26.6542306 15.1229017,26.657919 C8.4535657,26.6542306 2.9198195,21.4958941 2.44670955,14.8408339 Z" id="路径" fill="#000000" opacity="0.1"></path>
                                <path d="M1.79455234,13.3263355 C1.7809214,9.3854904 3.59964326,5.66225112 6.7160783,3.25111773 C9.83251334,0.839984341 13.8924699,0.0149889522 17.702465,1.01865091 C13.3157654,-0.851510228 8.25170933,-0.109642256 4.58543268,2.94025408 C0.919156027,5.99015041 -0.733047102,10.8353933 0.305858841,15.4905117 C1.34476478,20.1456301 4.90014169,23.8281073 9.51507636,25.0289474 C4.83177028,23.0253818 1.79431013,18.421262 1.79455234,13.3263355 Z" id="路径" fill="#2F2E41"></path>
                                <path d="M17.3736615,25.5095531 C14.4734831,22.8421019 12.9778555,18.9776694 13.3264392,15.0522595 C13.6750228,11.1268495 15.8282003,7.58659495 19.1530152,5.47220296 C14.7989925,7.41998674 11.90082,11.6410951 11.646581,16.4051174 C11.392342,21.1691396 13.8247945,25.6748626 17.9467734,28.0752001 C22.0687523,30.4755376 27.1870233,30.3668009 31.2033908,27.7935657 C26.5519538,29.8694855 21.1110483,28.970907 17.3736615,25.5095531 L17.3736615,25.5095531 Z" id="路径" fill="#2F2E41"></path>
                            </g>
                            <path d="M13.2781506,24.5156351 C12.0698415,20.7646026 12.6735869,16.6648701 14.9119018,13.4216496 C17.1502166,10.1784291 20.7687013,8.16033456 24.7036178,7.96063198 C19.9562822,7.50956641 15.3556779,9.7531675 12.7871444,13.7720017 C10.2186109,17.7908359 10.113946,22.9092946 12.5160415,27.0298201 C14.9181371,31.1503457 19.4231755,33.5802341 24.1849803,33.3237108 C19.1150636,32.8358303 14.824477,29.3709316 13.2790589,24.5165437 L13.2781506,24.5156351 Z" id="路径" fill="#2F2E41"></path>
                        </g>
                    </g>
                </g>
                <g id="分组-4-copy-6" transform="translate(153.017858, 30.830165) rotate(10.000000) translate(-153.017858, -30.830165) translate(139.017858, 15.830165)" fill="#2F2E41" fill-rule="nonzero">
                    <path d="M9.33167007,24.0080632 C9.58775909,23.647444 9.83490597,23.240137 10.0603053,22.7976586 C11.0477822,20.8591558 11.2439151,18.9796695 10.4983805,18.5997084 C9.75284582,18.2197473 8.34796238,19.4831951 7.36048549,21.4216979 C7.34527649,21.4515545 7.33025521,21.4813971 7.3154222,21.5112204 C2.22816984,18.9004347 -0.599491762,12.5698191 0.107319357,7.72698343 C0.837277487,2.72555205 8.95972562,1.65036806 12.7161572,0.37544423 C16.4725888,-0.899479601 17.9455552,3.91947502 23.3495384,6.35962145 C28.7535216,8.79976788 28.0074012,19.6274549 27.0670687,23.3941584 C26.1267361,27.1608619 24.452998,29.2655703 21.8480024,29.4688717 C19.6365979,29.6414562 12.8303438,27.8577641 9.33167007,24.0080632 Z" id="合并形状"></path>
                </g>
                <path d="" id="路径-24-copy-3" stroke="#979797"></path>
                <path d="M163.60562,71.8430941 L175.451614,91.446312" id="路径-90" stroke="#13161A"></path>
            </g>
            <g id="分组-14" transform="translate(0.000000, 171.929050)">
                <g id="分组-13">
                    <path d="M55.1351351,42.8636364 L68,42.8636364 L68,75.5675676 C68,79.1201019 65.1201019,82 61.5675676,82 L61.5675676,82 C58.0150332,82 55.1351351,79.1201019 55.1351351,75.5675676 L55.1351351,42.8636364 Z" id="矩形-copy-13" fill="#FFD96D"></path>
                    <rect id="矩形" fill="#E6E6E6" x="13.7837838" y="7.45454545" width="51.4594595" height="66.1590909"></rect>
                    <rect id="矩形-copy-14" fill="#EEEEEE" x="11.027027" y="4.65909091" width="52.3783784" height="68.9545455"></rect>
                    <rect id="矩形-copy-15" fill="#F2F2F2" x="7.35135135" y="1.86363636" width="53.2972973" height="71.75"></rect>
                    <rect id="矩形" fill="#4D5761" x="12.8648649" y="10.25" width="10.1081081" height="3.72727273"></rect>
                    <rect id="矩形-copy-19" fill="#4D5761" x="12.8648649" y="23.2954545" width="10.1081081" height="3.72727273"></rect>
                    <rect id="矩形-copy-16" fill="#4D5761" x="26.6486486" y="10.25" width="31.2432432" height="3.72727273"></rect>
                    <rect id="矩形-copy-21" fill="#4D5761" x="26.6486486" y="23.2954545" width="31.2432432" height="3.72727273"></rect>
                    <rect id="矩形-copy-23" fill="#4D5761" x="26.6486486" y="36.3409091" width="31.2432432" height="3.72727273"></rect>
                    <rect id="矩形-copy-25" fill="#4D5761" x="26.6486486" y="49.3863636" width="31.2432432" height="3.72727273"></rect>
                    <rect id="矩形-copy-27" fill="#4D5761" x="26.6486486" y="62.4318182" width="31.2432432" height="3.72727273"></rect>
                    <path d="M55.1351351,39.1363636 L55.1351351,75.5675676 C55.1351351,78.8695534 57.6231386,81.590435 60.8267336,81.9578004 C60.5549566,81.9857027 60.279148,82 60,82 L8,82 C3.581722,82 7.64651036e-15,78.418278 7.10542736e-15,74 L7.10542736e-15,47.1363636 C6.56434436e-15,42.7180856 3.581722,39.1363636 8,39.1363636 L55.1351351,39.1363636 Z M68,47.1363636 L68,74 L68,47.1363636 Z" id="合并形状" fill="#FFC82C"></path>
                    <polyline id="路径-116" stroke="#13161A" points="4.59459459 36.3409091 4.59459459 0 56.972973 0"></polyline>
                </g>
                <path d="M9.5,35 L25.8347946,35 L26.4285761,36.1001612 C27.4778281,38.0442202 26.7524437,40.4707782 24.8083847,41.5200302 C24.2246941,41.8350611 23.5718251,42 22.9085459,42 L9.5,42 C7.56700338,42 6,40.4329966 6,38.5 L6,38.5 C6,36.5670034 7.56700338,35 9.5,35 Z" id="矩形" fill="#FFC82C"></path>
            </g>
            <g id="分组-9-copy" transform="translate(68.000000, 237.929050) scale(-1, 1) translate(-68.000000, -237.929050) translate(39.000000, 195.929050)">
                <path d="M15.3155311,40.3016977 C21.0229472,33.4483015 23.861554,28.3106929 23.8313514,24.888872 C23.7860476,19.7561407 19.8754489,15.5609622 15.0967848,15.5186786 C10.3181207,15.476395 6.4809741,19.6030183 6.52627794,24.7357496 C6.5564805,28.1575705 9.48623156,33.3462199 15.3155311,40.3016977 Z" id="椭圆形-copy-11" fill="#1FA85C" transform="translate(15.178735, 27.910027) rotate(-49.000000) translate(-15.178735, -27.910027) "></path>
                <path d="M16.1273458,38.5486752 C21.8347619,31.6952789 24.6733687,26.5576703 24.6431661,23.1358494 C24.5978623,18.0031181 20.6872636,13.8079396 15.9085995,13.7656561 C11.1299354,13.7233725 7.29278881,17.8499957 7.33809265,22.982727 C7.36829521,26.4045479 10.2980463,31.5931973 16.1273458,38.5486752 Z" id="椭圆形-copy-13" stroke="#13161A" stroke-width="0.5" transform="translate(15.990550, 26.157005) rotate(-49.000000) translate(-15.990550, -26.157005) "></path>
                <path d="M41.4601757,30.4982377 C47.5877468,30.5475805 52.5151243,25.5811841 52.4657815,19.4054809 C52.4164388,13.2297777 47.4090607,8.18338084 41.2814897,8.13403805 C37.1964423,8.10114286 30.7427654,12.153777 21.9204589,20.2919404 C30.8618894,27.0632435 37.3751283,30.4653426 41.4601757,30.4982377 Z" id="椭圆形" fill="#28B968" transform="translate(37.193304, 19.316221) rotate(-58.000000) translate(-37.193304, -19.316221) "></path>
                <path d="M44.424314,30.3189193 C50.5518851,30.3682621 55.4792626,25.4018657 55.4299199,19.2261624 C55.3805771,13.0504592 50.373199,8.00406237 44.245628,7.95471958 C40.1605806,7.92182439 33.7069037,11.9744585 24.8845973,20.112622 C33.8260277,26.883925 40.3392667,30.2860241 44.424314,30.3189193 Z" id="椭圆形-copy-10" stroke="#13161A" stroke-width="0.5" transform="translate(40.157442, 19.136902) rotate(-58.000000) translate(-40.157442, -19.136902) "></path>
                <path d="M25.5,64 C35.8333333,51.8213243 41,43.1546577 41,38 C41,30.2680135 34.0604136,24 25.5,24 C16.9395864,24 10,30.2680135 10,38 C10,43.1546577 15.1666667,51.8213243 25.5,64 Z" id="椭圆形" fill="#13CE66"></path>
                <path d="M24.5,62 C34.8333333,49.8213243 40,41.1546577 40,36 C40,28.2680135 33.0604136,22 24.5,22 C15.9395864,22 9,28.2680135 9,36 C9,41.1546577 14.1666667,49.8213243 24.5,62 Z" id="椭圆形-copy-12" stroke="#13161A" stroke-width="0.5"></path>
                <g id="路径-2" transform="translate(7.000000, 49.000000)">
                    <mask id="mask-4" fill="white">
                        <use xlink:href="#path-3"></use>
                    </mask>
                    <use id="Mask" fill="#7C868D" xlink:href="#path-3"></use>
                    <polygon fill="#4D5761" mask="url(#mask-4)" points="30.6331178 -2.46107757 30.6331178 36.9161636 45.2554166 12.3053879 42.8183668 0.193643106"></polygon>
                </g>
            </g>
            <path d="M0,280.845213 L97,280.845213" id="路径-6" stroke="#13161A"></path>
            <path d="M274,280.5 L309.574663,280.5" id="路径-6-copy-2" stroke="#13161A"></path>
            <path d="M317,280.5 L434.313294,280.5" id="路径-6-copy-3" stroke="#13161A"></path>
        </g>
    </g>
</svg>