<?xml version="1.0" encoding="UTF-8"?>
<svg width="452px" height="274px" viewBox="0 0 452 274" version="1.1" xmlns="http://www.w3.org/2000/svg" xmlns:xlink="http://www.w3.org/1999/xlink">
    <!-- Generator: Sketch 53.2 (72643) - https://sketchapp.com -->
    <title>审批</title>
    <desc>Created with Sketch.</desc>
    <defs>
        <polygon id="path-1" points="93.2159329 23.8491967 40.7819706 47.2982109 46.6079665 1.69136252 7.10542736e-15 0 16.6457023 69.0786155 99.8742138 69.0786155"></polygon>
        <polygon id="path-3" points="0 0.603758641 33.25 0.603758641 28.2625 43.0304828 4.9875 43.0304828"></polygon>
        <polygon id="path-5" points="0 0.091868505 18.3664454 0.091868505 14.5401026 16.4381114 3.86662008 16.4381114"></polygon>
    </defs>
    <g id="页面-1" stroke="none" stroke-width="1" fill="none" fill-rule="evenodd">
        <g id="审批" transform="translate(-1.000000, 0.000000)">
            <g id="分组-11" transform="translate(126.000000, 0.000000)">
                <rect id="矩形-copy-9" fill="#7C868D" x="3.3220339" y="3.3381295" width="94.6779661" height="112.661871"></rect>
                <rect id="矩形" stroke="#13161A" fill="#FFFFFF" x="0.5" y="0.5" width="93.6779661" height="111.661871"></rect>
                <rect id="矩形" fill="#E6E6E6" x="17.440678" y="47.5683453" width="59.7966102" height="5.84172662"></rect>
                <rect id="矩形-copy-11" fill="#E6E6E6" x="17.440678" y="59.2517986" width="59.7966102" height="5.84172662"></rect>
                <rect id="矩形-copy-12" fill="#E6E6E6" x="31.559322" y="71.7697842" width="45.6779661" height="5.84172662"></rect>
                <g id="分组-10" transform="translate(68.101695, 87.625899)">
                    <path d="M9.55084746,14.0201439 C11.6998349,14.0201439 13.4419335,5.76534507 13.4419335,3.71410276 C13.4419335,1.66286045 11.6998349,0 9.55084746,0 C7.40186,0 5.65976146,1.66286045 5.65976146,3.71410276 C5.65976146,5.76534507 7.40186,14.0201439 9.55084746,14.0201439 Z" id="椭圆形" fill="#FF4A3F"></path>
                    <path d="M2.81049176,13.3191367 L16.2912032,13.3191367 C17.4526699,13.3191367 18.3942247,14.2606915 18.3942247,15.4221583 L18.3942247,15.4221583 C18.3942247,16.583625 17.4526699,17.5251799 16.2912032,17.5251799 L2.81049176,17.5251799 C1.64902502,17.5251799 0.707470182,16.583625 0.707470182,15.4221583 L0.707470182,15.4221583 C0.707470182,14.2606915 1.64902502,13.3191367 2.81049176,13.3191367 Z" id="矩形" fill="#4D5761"></path>
                    <rect id="矩形" fill="#FF4A3F" x="5.65976146" y="11.2161151" width="7.782172" height="1.40201439" rx="0.701007194"></rect>
                    <path d="M3.96536444,12.6181295 L15.5753867,12.6181295 C16.9064118,12.6181295 18.152065,13.27361 18.9058133,14.3706475 L18.9058133,14.3706475 C19.2557528,14.8799645 19.1265519,15.5765295 18.6172349,15.9264691 C18.4307703,16.0545844 18.209849,16.1231655 17.9836133,16.1231655 L1.07003844,16.1231655 C0.478731317,16.1231655 -0.00061781964,15.6438163 -0.00061781964,15.0525092 C-0.00061781964,14.8036308 0.0860858677,14.5625269 0.2445874,14.3706475 L0.2445874,14.3706475 C1.16139287,13.2607772 2.52580054,12.6181295 3.96536444,12.6181295 Z" id="矩形" fill="#FFC82C"></path>
                </g>
                <ellipse id="椭圆形" fill="#FFC82C" cx="22.4237288" cy="23.3669065" rx="15.779661" ry="15.8561151"></ellipse>
                <ellipse id="椭圆形" fill="#FF3B30" cx="22.8389831" cy="23.7841727" rx="10.3813559" ry="10.4316547"></ellipse>
            </g>
            <g id="分组-14" transform="translate(100.000000, 70.000000)">
                <g id="分组-13">
                    <path d="M42.1621622,32.9318182 L52,32.9318182 L52,58.0810811 C52,60.797725 49.797725,63 47.0810811,63 L47.0810811,63 C44.3644372,63 42.1621622,60.797725 42.1621622,58.0810811 L42.1621622,32.9318182 Z" id="矩形-copy-13" fill="#FFD96D"></path>
                    <rect id="矩形" fill="#E6E6E6" x="10.5405405" y="5.72727273" width="39.3513514" height="50.8295455"></rect>
                    <rect id="矩形-copy-14" fill="#EEEEEE" x="8.43243243" y="3.57954545" width="40.0540541" height="52.9772727"></rect>
                    <rect id="矩形-copy-15" fill="#F2F2F2" x="5.62162162" y="1.43181818" width="40.7567568" height="55.125"></rect>
                    <rect id="矩形" fill="#4D5761" x="9.83783784" y="7.875" width="7.72972973" height="2.86363636"></rect>
                    <rect id="矩形-copy-19" fill="#4D5761" x="9.83783784" y="17.8977273" width="7.72972973" height="2.86363636"></rect>
                    <rect id="矩形-copy-16" fill="#4D5761" x="20.3783784" y="7.875" width="23.8918919" height="2.86363636"></rect>
                    <rect id="矩形-copy-21" fill="#4D5761" x="20.3783784" y="17.8977273" width="23.8918919" height="2.86363636"></rect>
                    <rect id="矩形-copy-23" fill="#4D5761" x="20.3783784" y="27.9204545" width="23.8918919" height="2.86363636"></rect>
                    <rect id="矩形-copy-25" fill="#4D5761" x="20.3783784" y="37.9431818" width="23.8918919" height="2.86363636"></rect>
                    <rect id="矩形-copy-27" fill="#4D5761" x="20.3783784" y="47.9659091" width="23.8918919" height="2.86363636"></rect>
                    <path d="M42.1621622,30.0681818 L42.1621622,58.0810811 C42.1621622,60.3294096 43.6705939,62.225425 45.730639,62.812309 C45.1733443,62.9352101 44.5942384,63 44,63 L8,63 C3.581722,63 7.64651036e-15,59.418278 7.10542736e-15,55 L7.10542736e-15,38.0681818 C6.56434436e-15,33.6499038 3.581722,30.0681818 8,30.0681818 L42.1621622,30.0681818 Z M52,38.0681818 L52,55 L52,38.0681818 Z" id="合并形状" fill="#FFC82C"></path>
                    <polyline id="路径-116" stroke="#13161A" points="3.51351351 27.9204545 3.51351351 0 43.5675676 0"></polyline>
                </g>
                <path d="M7.85369674,27.3552632 L19.8356323,27.3552632 L19.8584769,27.4020226 C20.8282183,29.3869399 20.0052556,31.7821641 18.0203383,32.7519055 C17.4735512,33.0190411 16.8730199,33.1578947 16.2644662,33.1578947 L7.85369674,33.1578947 C6.25134428,33.1578947 4.95238095,31.8589314 4.95238095,30.2565789 L4.95238095,30.2565789 C4.95238095,28.6542265 6.25134428,27.3552632 7.85369674,27.3552632 Z" id="矩形" fill="#FFC82C"></path>
            </g>
            <g id="分组-9" transform="translate(0.000000, 68.000000)">
                <path d="M21.8324001,183.654374 L220.748543,183.848836" id="路径-101" stroke="#13161A"></path>
                <path d="M228.839428,183.848836 L397.192987,183.654374" id="路径-102" stroke="#13161A"></path>
                <polygon id="路径-45" stroke="#13161A" fill="#0092FF" points="310.635335 179.606756 310.635335 183.24197 353.914161 183.24197 353.914161 179.606756"></polygon>
                <path d="M144.763586,104.157415 C122.631779,72.4661661 115.571834,51.0950558 123.583751,40.0440841 C135.601626,23.4676266 145.669382,25.7925571 156.374818,29.6628653 C167.080253,33.5331736 184.872934,51.2033703 203.161904,61.2198226 C221.450873,71.2362748 261.11304,67.9043071 264.503224,104.009714 C266.763347,128.079985 230.527712,150.66993 155.796319,171.779549 L144.763586,104.157415 Z" id="路径-33-copy-3" fill="#2F2E41" transform="translate(192.496129, 99.324397) scale(-1, 1) rotate(-59.000000) translate(-192.496129, -99.324397) "></path>
                <g id="分组-6" transform="translate(87.272019, 101.499268) scale(-1, 1) rotate(161.000000) translate(-87.272019, -101.499268) translate(66.772019, 74.999268)">
                    <polygon id="路径-9-copy-4" fill="#FFC1C7" points="23.8513611 0.529305881 13.3165618 41.7307692 35.8475151 41.7307692 40.3873606 6.20569799"></polygon>
                    <path d="M13.3165618,40.0615385 C18.8651293,40.2665502 26.6331237,40.2665502 36.6205451,40.0615385 L36.6205451,51.7461538 L0,51.7461538 C2.73610968,45.5574464 7.17496362,41.6625746 13.3165618,40.0615385 Z" id="矩形-copy-2" fill="#0092FF"></path>
                    <path d="M13.3165618,38.7061847 C21.0845563,38.7751385 28.8525507,38.8440923 36.6205451,38.9130461" id="路径-16-copy-2" stroke="#13161A"></path>
                    <path d="M9.09494702e-13,52.1101231 C12.2068484,52.1456821 24.4136967,52.181241 36.6205451,52.2167999" id="路径-17-copy-2" stroke="#13161A"></path>
                </g>
                <g id="分组-6-copy-2" transform="translate(32.192062, 129.750182) scale(-1, 1) rotate(212.000000) translate(-32.192062, -129.750182) translate(11.692062, 103.250182)">
                    <polygon id="路径-9-copy-4" fill="#FFC1C7" points="23.8513611 0.529305881 13.3165618 41.7307692 35.8475151 41.7307692 40.3873606 6.20569799"></polygon>
                    <path d="M13.3165618,40.0615385 C18.8651293,40.2665502 26.6331237,40.2665502 36.6205451,40.0615385 L36.6205451,51.7461538 L0,51.7461538 C2.73610968,45.5574464 7.17496362,41.6625746 13.3165618,40.0615385 Z" id="矩形-copy-2" fill="#0092FF"></path>
                    <path d="M13.3165618,38.7061847 C21.0845563,38.7751385 28.8525507,38.8440923 36.6205451,38.9130461" id="路径-16-copy-2" stroke="#13161A"></path>
                    <path d="M9.09494702e-13,52.1101231 C12.2068484,52.1456821 24.4136967,52.181241 36.6205451,52.2167999" id="路径-17-copy-2" stroke="#13161A"></path>
                </g>
                <polygon id="路径-98" fill="#0092FF" points="81.7569284 169.858624 54.2915196 121.892836 21.8324001 159.04064 78.4277879 183.79261"></polygon>
                <g id="椭圆形" transform="translate(59.285230, 114.575759)">
                    <mask id="mask-2" fill="white">
                        <use xlink:href="#path-1"></use>
                    </mask>
                    <use id="Mask" fill="#0092FF" xlink:href="#path-1"></use>
                    <ellipse fill="#FFC82C" mask="url(#mask-2)" cx="18.7264151" cy="66.1574616" rx="10.4035639" ry="10.4326923"></ellipse>
                </g>
                <g id="分组-12" transform="translate(316.933025, 177.979237) rotate(62.000000) translate(-316.933025, -177.979237) translate(305.433025, 159.979237)">
                    <ellipse id="椭圆形-copy-8" fill="#FFC1C7" transform="translate(11.500943, 13.474956) scale(-1, 1) rotate(55.000000) translate(-11.500943, -13.474956) " cx="11.5009429" cy="13.4749563" rx="12.9783327" ry="4.14999234"></ellipse>
                    <path d="M16.0614168,12.3514526 L6.06505181,34.8526594" id="路径-64-copy" stroke="#13161A" transform="translate(11.124343, 23.261068) scale(-1, 1) translate(-11.124343, -23.261068) "></path>
                </g>
                <polygon id="路径-69" fill="#FFC82C" transform="translate(265.010918, 164.327871) rotate(38.000000) translate(-265.010918, -164.327871) " points="218.351157 176.381846 255.267595 193.887514 311.67068 179.948694 310.972155 134.768228 254.971947 174.944683 224.222683 159.49913"></polygon>
                <polyline id="路径-73" stroke="#13161A" transform="translate(273.630595, 164.705638) rotate(38.000000) translate(-273.630595, -164.705638) " points="244.876954 174.593549 257.118186 180.932673 302.384236 148.478602"></polyline>
                <path d="M149.172023,136.915913 L149.172023,198.677451 C159.282954,197.327944 173.743727,192.385072 192.554342,183.848836 C211.364957,175.3126 229.137657,165.627958 245.872442,154.794909 L247.082112,140.302763 C246.52135,132.100789 240.240349,127.633377 228.239109,126.900528 C210.237248,125.801255 210.093263,132.157384 191.618564,136.915913 C179.302098,140.088265 165.153251,140.088265 149.172023,136.915913 Z" id="路径-96" fill="#FFC82C"></path>
                <g id="分组-6-copy" transform="translate(258.329397, 117.006291) scale(-1, 1) rotate(-46.000000) translate(-258.329397, -117.006291) translate(232.829397, 89.006291)">
                    <path d="M28.1137617,48.4182007 C28.1183956,48.5122506 28.1207399,48.6069025 28.1207399,48.7021018 C28.1207399,51.8365302 25.5794256,54.3774865 22.4445554,54.3774865 C19.3096853,54.3774865 16.768371,51.8365302 16.768371,48.7021018 C16.768371,48.6069025 16.7707152,48.5122506 16.7753492,48.4182007 C16.7707279,48.3627241 16.768371,48.3066043 16.768371,48.249934 L16.768371,40.8991648 C16.768371,39.7945953 17.6638015,38.8991648 18.768371,38.8991648 L26.1207399,38.8991648 C27.2253094,38.8991648 28.1207399,39.7945953 28.1207399,40.8991648 L28.1207399,48.249934 C28.1207399,48.3066043 28.1183829,48.3627241 28.1137617,48.4182007 Z" id="合并形状-copy" fill="#FFC1C7" transform="translate(22.444555, 46.638326) rotate(10.000000) translate(-22.444555, -46.638326) "></path>
                    <path d="M17.2414229,53.3661145 C22.9191329,55.7297715 25.007739,53.0803966 27.2938735,48.7330143 C27.3727532,48.5830141 27.4518681,48.4309926 27.5313738,48.2770857" id="路径-11-copy-2" stroke="#13161A" transform="translate(22.386398, 51.264270) rotate(21.000000) translate(-22.386398, -51.264270) "></path>
                    <g id="分组-5-copy-2" transform="translate(25.657511, 24.454000) rotate(10.000000) translate(-25.657511, -24.454000) translate(4.157511, 3.454000)" fill-rule="nonzero">
                        <ellipse id="椭圆形" fill="#2F2E41" cx="21.8202852" cy="20.649113" rx="20.6520232" ry="20.649113"></ellipse>
                        <ellipse id="椭圆形" fill="#FFC1C7" cx="18.5869241" cy="23.3000336" rx="18.5869241" ry="18.5843049"></ellipse>
                        <path d="M32.6256924,34.2347374 C24.8297625,42.0295687 12.2849294,42.327092 4.12813417,34.9106081 C9.2494175,40.5415092 17.0534572,42.8991011 24.4363757,41.0457058 C29.8928314,39.6759265 34.4653724,36.1701865 37.2284332,31.4539213 C38.2039628,29.788791 38.9539366,27.972766 39.4376208,26.0465747 C41.2912773,18.6646965 38.9333531,10.8617566 33.3016584,5.74119494 C40.7191875,13.8968408 40.4216224,26.439906 32.6256924,34.2347374 Z" id="路径" fill="#000000" opacity="0.1"></path>
                    </g>
                    <g id="分组-4-copy-2" transform="translate(27.758323, 20.713467) rotate(10.000000) translate(-27.758323, -20.713467) translate(11.758323, 3.713467)" fill="#2F2E41" fill-rule="nonzero">
                        <path d="M10.6029164,27.2682024 C10.8938922,26.8586134 11.1747077,26.3959968 11.430813,25.8934327 C12.5528131,23.6916938 12.7756651,21.5569854 11.9285668,21.1254281 C11.0814686,20.6938708 9.48519893,22.1288866 8.36319881,24.3306255 C8.3459179,24.3645364 8.32885028,24.3984314 8.31199658,24.4323046 C2.53171172,21.4669912 -0.681160068,14.276719 0.121939391,8.77625764 C0.951339161,3.09566434 10.1803022,1.87447734 14.4484696,0.426427121 C18.716637,-1.02162309 20.3902645,4.4517143 26.5304282,7.22321678 C32.670592,9.99471927 31.8228282,22.2927359 30.7543948,26.5709333 C29.6859615,30.8491307 27.7842113,33.2396449 24.8243391,33.4705533 C22.3116767,33.6665736 14.5782117,31.6406677 10.6029164,27.2682024 Z" id="合并形状"></path>
                    </g>
                    <path d="" id="路径-24-copy-2" stroke="#979797"></path>
                </g>
                <path d="M67.6080814,143.997781 L75.9309326,183.654374" id="路径-97" stroke="#13161A"></path>
                <path d="M224.909968,152.842723 L228.839428,161.87397" id="路径-99" stroke="#13161A"></path>
                <path d="M353.081876,181.275987 L377.140722,133.577451" id="路径-100" stroke="#13161A" stroke-width="4" stroke-linecap="round"></path>
            </g>
            <g id="分组-7" transform="translate(320.000000, 59.000000)">
                <path d="M35.4342067,93.3729849 C39.867379,96.1441343 42.0837036,98.3614724 42.0831805,100.024999 C42.0823959,102.520289 44.5747149,108.341847 56.2132959,110.833476 C59.3425013,111.503387 59.2978443,112.264636 59.538829,110.832429 C59.8411009,109.035985 60.7302258,103.111136 58.7108457,100.019768 C56.3522496,96.4091116 49.9192148,95.6872054 45.8259744,95.0332423 C38.8981293,93.926404 35.4342067,93.3729849 35.4342067,93.3729849 Z" id="路径-113" fill="#396F30" transform="translate(47.714907, 102.509263) rotate(-27.000000) translate(-47.714907, -102.509263) "></path>
                <path d="M59.6881888,104.590828 C66.6471358,108.869588 71.2031361,114.970163 73.3561895,122.892552 C75.509243,130.814941 76.0777916,143.570688 75.0618354,161.159793" id="路径-112" stroke="#39742C" stroke-width="3"></path>
                <path d="M85.8249395,79.8953328 C85.8249395,75.5480397 85.8249395,51.3494483 93.4508614,41.3666897 C98.5348093,34.7115173 107.076169,29.4428391 119.07494,25.5606552 C109.93119,37.2072069 103.835356,44.416977 100.78744,47.1899655 C96.2155645,51.3494483 102.44994,58.6487069 102.44994,67.1554828 C102.44994,75.6622587 85.8249395,84.242626 85.8249395,79.8953328 Z" id="路径-110" fill="#39742C"></path>
                <path d="M89.1499395,79.6339311 C78.855228,90.0991897 72.4823113,120.879362 70.0311895,171.974448" id="路径-105-copy" stroke="#39742C" stroke-width="3"></path>
                <path d="M91.8224005,109.251865 C86.8992246,113.211025 83.8526485,124.856989 82.6826721,144.189756" id="路径-105-copy-2" stroke="#39742C" stroke-width="3" transform="translate(87.252536, 126.720810) rotate(9.000000) translate(-87.252536, -126.720810) "></path>
                <path d="M73.3561895,79.6339311 C79.1749395,104.590828 81.1145229,131.211517 79.1749395,159.496" id="路径-103" stroke="#26BC69" stroke-width="3" stroke-linecap="round"></path>
                <path d="M104.94369,77.970138 C93.3061895,87.3982989 86.1020229,115.128184 83.3311895,161.159793" id="路径-105" stroke="#6DBE5C" stroke-width="3"></path>
                <path d="M59.1490563,84.8479007 C65.2478263,84.846084 74.091221,79.0637663 77.3200345,68.5396672 C79.3175195,62.0290004 77.0328896,53.0165565 77.0354248,44.5011943 C77.0388143,33.1167402 72.8435247,33.6683378 69.4851204,26.3345428 C66.2709643,19.3157444 64.0006178,4.16369852 59.1730777,4.16513652 C56.1748801,4.16602961 51.4129893,10.1306094 48.2903687,12.7796826 C44.6709542,15.8502105 43.1956298,17.1425479 41.5100119,23.3863945 C40.5972113,26.7675801 42.2462432,30.603187 42.5646942,34.8929564 C42.8213036,38.349673 41.7620842,43.0283473 41.7610652,46.4508698 C41.7584849,55.1173822 45.8671343,58.6728701 47.8381893,64.8889161 C50.9343361,74.6531242 53.1172576,84.8496974 59.1490563,84.8479007 Z" id="椭圆形" fill="#26BC69" transform="translate(59.688447, 44.506519) rotate(-25.000000) translate(-59.688447, -44.506519) "></path>
                <path d="M50.9555854,28.0563448 C68.0349123,48.0218621 76.0386859,65.2143908 74.9669063,79.6339311" id="路径-107" stroke="#0F944A"></path>
                <path d="M101.68796,82.3174311 C89.4962937,71.7800748 90.604627,63.7384081 105.01296,58.1924311 C119.421294,52.6464541 128.565044,48.9789656 132.44421,47.1899655 C129.11921,62.2893104 124.685877,70.9481782 119.14421,73.166569 C113.602544,75.3849598 107.783794,78.4352472 101.68796,82.3174311 Z" id="路径-109" fill="#6DBE5C"></path>
                <path d="M43.4311895,82.3174311 C52.8520229,86.6290058 60.3332729,93.2215747 65.8749395,102.095138 C75.6575309,117.759458 76.5772833,136.563366 76.5772833,157.00031" id="路径-104" stroke="#0F944A" stroke-width="3" stroke-linecap="round"></path>
                <path d="M45.7881992,90.837233 C19.9896333,72.5397855 5.98234898,60.8956041 3.76634615,55.904689 C0.442341899,48.4183163 16.6024916,62.557803 31.1974041,62.5556768 C45.7923167,62.5535506 26.208756,69.4727819 40.3402021,70.8730748 C49.7611661,71.8066034 51.5771651,78.4613228 45.7881992,90.837233 Z" id="路径-108" fill="#0F944A" transform="translate(26.210068, 72.277673) rotate(-11.000000) translate(-26.210068, -72.277673) "></path>
                <g id="路径-2" transform="translate(62.549940, 149.741379)">
                    <mask id="mask-4" fill="white">
                        <use xlink:href="#path-3"></use>
                    </mask>
                    <use id="Mask" fill="#4D5761" xlink:href="#path-3"></use>
                    <path d="M23.275,-5.05006869 L24.7025968,48.25 C41.7843725,41.5948276 50.3252604,36.3261494 50.3252604,32.4439655 C50.3252604,28.5617816 45.8168837,14.6968391 36.8001302,-9.15086207 L23.275,-5.05006869 Z" fill="#313B40" mask="url(#mask-4)"></path>
                </g>
                <path d="M93.3061895,110.414103 C90.8124395,107.086517 110.039785,91.2804828 112.8752,91.2804828 C116.000847,91.2804828 112.914524,100.211794 111.59369,102.095138 C109.902782,104.50616 111.171005,108.545869 107.43744,110.414103 C100.78744,113.74169 95.7999395,113.74169 93.3061895,110.414103 Z" id="路径-111" fill="#39742C"></path>
            </g>
            <g id="分组-15" transform="translate(35.000000, 10.000000)">
                <rect id="矩形" fill="#FFC82C" x="0" y="3.37777778" width="34.4772727" height="34.6222222"></rect>
                <rect id="矩形" stroke="#13161A" x="3.02272727" y="0.5" width="33.4772727" height="33.6222222"></rect>
            </g>
            <g id="分组-15-copy" transform="translate(422.133578, 56.741119) rotate(-21.000000) translate(-422.133578, -56.741119) translate(403.633578, 37.741119)">
                <rect id="矩形" fill="#FFC82C" x="0" y="3.33333333" width="34.1289134" height="34.1666667"></rect>
                <rect id="矩形" stroke="#13161A" x="2.99723757" y="0.5" width="33.1289134" height="33.1666667"></rect>
            </g>
            <g id="分组-16" transform="translate(58.000000, 29.000000)">
                <rect id="矩形-copy-17" fill="#0092FF" x="0" y="3.37777778" width="34.4772727" height="34.6222222"></rect>
                <rect id="矩形-copy-18" stroke="#13161A" x="3.02272727" y="0.5" width="33.4772727" height="33.6222222"></rect>
            </g>
            <g id="分组-16-copy" transform="translate(355.020610, 40.626103) rotate(40.000000) translate(-355.020610, -40.626103) translate(336.520610, 21.626103)">
                <rect id="矩形-copy-17" fill="#0092FF" x="0" y="3.33333333" width="34.1289134" height="34.1666667"></rect>
                <rect id="矩形-copy-18" stroke="#13161A" x="2.99723757" y="0.5" width="33.1289134" height="33.1666667"></rect>
            </g>
            <rect id="矩形" fill="#4D5761" x="234" y="87" width="86" height="6" rx="2"></rect>
            <rect id="矩形" fill="#4D5761" x="244" y="91" width="7" height="5" rx="2"></rect>
            <rect id="矩形-copy-20" fill="#4D5761" x="302" y="91" width="7" height="5" rx="2"></rect>
            <g id="分组-10-copy" transform="translate(246.000000, 47.000000)">
                <g id="分组-17">
                    <polygon id="矩形-copy-5" fill="#54B6FF" points="7.31428571 3.90798505e-14 14.6285714 5.85714286 14.6285714 41 7.31428571 41"></polygon>
                    <rect id="矩形" fill="#0092FF" x="1.59872116e-14" y="3.90798505e-14" width="7.31428571" height="41"></rect>
                </g>
                <polygon id="矩形-copy-8" fill="#FFDD7B" points="15.5428571 0 22.8571429 5.85714286 22.8571429 41 15.5428571 41"></polygon>
                <polygon id="矩形-copy-10" fill="#4FF297" points="24.6857143 0 32 5.85714286 32 41 24.6857143 41"></polygon>
                <rect id="矩形-copy-9" fill="#FFC82C" x="9.14285714" y="0" width="7.31428571" height="41"></rect>
                <rect id="矩形-copy-11" fill="#13CE66" x="17.3714286" y="0" width="7.31428571" height="41"></rect>
            </g>
            <g id="分组-19-copy" transform="translate(299.000000, 54.500000) scale(-1, 1) translate(-299.000000, -54.500000) translate(274.000000, 28.000000)">
                <g id="分组-13" transform="translate(3.125000, 21.482537)">
                    <path d="M11.4116862,7.33158007 C22.4912317,10.4233311 28.0310044,16.8149607 28.0310044,26.5064689" id="路径-60" stroke="#13161A" stroke-width="2"></path>
                    <ellipse id="椭圆形" fill="#FF3B30" transform="translate(7.350852, 5.876176) rotate(-1.000000) translate(-7.350852, -5.876176) " cx="7.35085227" cy="5.87617562" rx="5.43318603" ry="5.25768521"></ellipse>
                    <ellipse id="椭圆形-copy-8" stroke="#313B40" stroke-width="0.5" transform="translate(6.072443, 6.494720) rotate(-1.000000) translate(-6.072443, -6.494720) " cx="6.07244318" cy="6.49472042" rx="5.43318603" ry="5.25768521"></ellipse>
                </g>
                <g id="分组-13-copy" transform="translate(25.211709, 24.020975) rotate(42.000000) translate(-25.211709, -24.020975) translate(4.711709, 10.520975)">
                    <path d="M11.2993349,7.36179263 C19.3935332,5.44683423 29.1660116,11.9669179 40.6167703,26.9220437" id="路径-60" stroke="#13161A" stroke-width="2"></path>
                    <ellipse id="椭圆形" fill="#FF3B30" transform="translate(7.278481, 5.900391) rotate(-1.000000) translate(-7.278481, -5.900391) " cx="7.27848101" cy="5.90039062" rx="5.37971653" ry="5.27932777"></ellipse>
                    <ellipse id="椭圆形-copy-8" stroke="#313B40" stroke-width="0.5" transform="translate(6.012658, 6.521484) rotate(-1.000000) translate(-6.012658, -6.521484) " cx="6.01265823" cy="6.52148437" rx="5.37971653" ry="5.27932777"></ellipse>
                </g>
                <ellipse id="椭圆形" fill="#13CE66" transform="translate(34.536332, 41.955973) rotate(18.000000) translate(-34.536332, -41.955973) " cx="34.5363323" cy="41.9559732" rx="2.84344743" ry="8.71112561"></ellipse>
                <ellipse id="椭圆形-copy-9" fill="#13CE66" transform="translate(26.488753, 44.649956) rotate(-48.000000) translate(-26.488753, -44.649956) " cx="26.4887534" cy="44.6499561" rx="2.8197878" ry="8.15910653"></ellipse>
            </g>
            <g id="分组-9-copy" transform="translate(285.000000, 71.000000)">
                <g id="路径-2" transform="translate(0.229885, 0.233766)">
                    <mask id="mask-6" fill="white">
                        <use xlink:href="#path-5"></use>
                    </mask>
                    <use id="Mask" fill="#7C868D" xlink:href="#path-5"></use>
                    <polygon fill="#4D5761" mask="url(#mask-6)" points="14.4288568 -1.16758877 14.4288568 17.5138316 21.3162738 5.83794387 20.168371 0.091868505"></polygon>
                </g>
            </g>
        </g>
    </g>
</svg>