<?xml version="1.0" encoding="UTF-8"?>
<svg width="437px" height="341px" viewBox="0 0 437 341" version="1.1" xmlns="http://www.w3.org/2000/svg" xmlns:xlink="http://www.w3.org/1999/xlink">
    <!-- Generator: Sketch 53.2 (72643) - https://sketchapp.com -->
    <title>流程预警</title>
    <desc>Created with Sketch.</desc>
    <defs>
        <path d="M18.1352459,1.45333333 L-2.13162821e-14,84.2933333 L33.082178,86.4733333 L35.545082,32.5475167 L37.0665643,54.1360202 L48.2688945,86.4733333 L84.147541,78.48 C74.7786764,64.1252768 68.2096426,51.2969929 64.4404398,39.9951481 C60.6712369,28.6933034 58.5158234,15.3615874 57.9741995,-7.10542736e-15 L18.1352459,1.45333333 Z" id="path-1"></path>
    </defs>
    <g id="页面-1" stroke="none" stroke-width="1" fill="none" fill-rule="evenodd">
        <g id="流程预警">
            <path d="M89,282.561177 L113.390025,305 L138,305 L160.3155,305 L161.325705,305 L160.99184,337.881919 L168.836659,337.01343 L351.432127,306.782072 L349.000001,239.212512 L348.639135,1 L89,1 L89,282.561177 Z" id="路径" stroke="#313B40" stroke-width="2" fill="#FFFFFF"></path>
            <rect id="矩形" fill="#0092FF" x="91" y="3" width="256" height="10"></rect>
            <circle id="椭圆形" fill="#FFC82C" cx="104" cy="8" r="2"></circle>
            <circle id="椭圆形-copy-9" fill="#13CE66" cx="112" cy="8" r="2"></circle>
            <circle id="椭圆形-copy-10" fill="#FF3B30" cx="96" cy="8" r="2"></circle>
            <rect id="矩形" fill="#CAE9FF" x="96" y="23" width="118" height="10"></rect>
            <rect id="矩形-copy-5" fill="#CAE9FF" x="222" y="23" width="18" height="10"></rect>
            <rect id="矩形-copy-10" fill="#CAE9FF" x="102" y="45" width="11" height="5"></rect>
            <rect id="矩形-copy-12" fill-opacity="0.307173295" fill="#13CE66" x="127" y="53" width="47" height="5"></rect>
            <rect id="矩形-copy-17" fill-opacity="0.231779939" fill="#FF3B30" x="127" y="91" width="47" height="5"></rect>
            <rect id="矩形-copy-23" fill="#CAE9FF" x="127" y="129" width="47" height="5"></rect>
            <rect id="矩形-copy-29" fill-opacity="0.224759615" fill="#FFC82C" x="127" y="167" width="47" height="5"></rect>
            <rect id="矩形-copy-16" fill-opacity="0.307173295" fill="#13CE66" x="127" y="71" width="84" height="5"></rect>
            <rect id="矩形-copy-18" fill-opacity="0.231779939" fill="#FF3B30" x="127" y="108" width="84" height="5"></rect>
            <rect id="矩形-copy-24" fill="#CAE9FF" x="127" y="147" width="84" height="5"></rect>
            <rect id="矩形-copy-30" fill-opacity="0.224759615" fill="#FFC82C" x="127" y="184" width="84" height="5"></rect>
            <rect id="矩形-copy-13" fill-opacity="0.307173295" fill="#13CE66" x="127" y="62" width="65" height="5"></rect>
            <rect id="矩形-copy-19" fill-opacity="0.231779939" fill="#FF3B30" x="127" y="100" width="65" height="5"></rect>
            <rect id="矩形-copy-25" fill="#CAE9FF" x="127" y="137" width="65" height="5"></rect>
            <rect id="矩形-copy-31" fill-opacity="0.224759615" fill="#FFC82C" x="127" y="175" width="65" height="5"></rect>
            <rect id="矩形-copy-14" fill-opacity="0.307173295" fill="#13CE66" x="198" y="62" width="65" height="5"></rect>
            <rect id="矩形-copy-20" fill-opacity="0.231779939" fill="#FF3B30" x="198" y="100" width="65" height="5"></rect>
            <rect id="矩形-copy-26" fill="#CAE9FF" x="198" y="137" width="65" height="5"></rect>
            <rect id="矩形-copy-32" fill-opacity="0.224759615" fill="#FFC82C" x="198" y="175" width="65" height="5"></rect>
            <rect id="矩形-copy-15" fill-opacity="0.307173295" fill="#13CE66" x="270" y="62" width="34" height="5"></rect>
            <rect id="矩形-copy-21" fill-opacity="0.231779939" fill="#FF3B30" x="270" y="100" width="34" height="5"></rect>
            <rect id="矩形-copy-27" fill="#CAE9FF" x="270" y="137" width="34" height="5"></rect>
            <rect id="矩形-copy-33" fill-opacity="0.224759615" fill="#FFC82C" x="270" y="175" width="34" height="5"></rect>
            <rect id="矩形-copy-22" fill-opacity="0.829818619" fill="#FF3B30" x="127" y="83" width="31" height="5"></rect>
            <rect id="矩形-copy-28" fill="#3FADFF" x="127" y="120" width="31" height="5"></rect>
            <rect id="矩形-copy-45" fill="#FF3B30" x="127" y="233" width="31" height="5"></rect>
            <rect id="矩形-copy-7" fill="#0092FF" x="117" y="120" width="7" height="7"></rect>
            <path d="M126,254 L126,286.785714 C126,296.845187 117.717268,305 107.5,305 L107.5,305 C97.2827321,305 89,296.845187 89,286.785714 L89,254" id="形状" stroke="#313B40" stroke-width="2" fill="#FFFFFF"></path>
            <path d="M140,239.362329 L360.783818,239.362329 M360.783818,339.365028 L159.980436,339.365028" id="形状" stroke="#313B40" stroke-width="2" fill="#FFFFFF"></path>
            <path d="M126.001268,255.877307 L161,335.253383 L161,256.085106 C161,246.654403 153.169996,239 143.5,239 C133.901127,239 126.11528,246.54222 126.001268,255.877307 Z" id="路径" stroke="#313B40" stroke-width="2"></path>
            <rect id="矩形" fill="#FFFFFF" x="162" y="250" width="32" height="77"></rect>
            <path d="M383,257 L383,320.937508 C383,330.913147 374.941125,339 365,339" id="路径" stroke="#313B40" stroke-width="2" fill="#FFFFFF"></path>
            <rect id="矩形" fill="#FFFFFF" x="327" y="267" width="48" height="65"></rect>
            <path d="M383,288 L383,319.911614 C383,329.70289 378.68,338 365,338 L350,338 L351,267 L350,240" id="路径" stroke="#313B40" stroke-width="2" fill="#FFFFFF" transform="translate(366.500000, 289.000000) scale(1, -1) translate(-366.500000, -289.000000) "></path>
            <rect id="矩形" fill="#0092FF" x="119" y="47" width="2" height="208"></rect>
            <rect id="矩形" fill="#313B40" x="364" y="338" width="73" height="2"></rect>
            <rect id="矩形-copy-46" fill="#313B40" x="108" y="304" width="34" height="2"></rect>
            <rect id="矩形-copy-48" fill="#4D5761" x="167" y="301" width="198" height="37"></rect>
            <polygon id="矩形" fill="#13CE66" transform="translate(224.900915, 303.971776) rotate(27.000000) translate(-224.900915, -303.971776) " points="204.954921 283.863635 244.833963 283.876483 244.846908 324.079916 204.967867 324.067069"></polygon>
            <path d="M204.205002,280.113716 L204.217787,319.817149 L243.596828,319.829835 L243.584043,280.126402 L204.205002,280.113716 Z" id="矩形-copy" stroke="#313B40" stroke-width="0.5" transform="translate(223.900915, 299.971776) rotate(27.000000) translate(-223.900915, -299.971776) "></path>
            <g id="分组-7" transform="translate(214.000000, 259.000000)">
                <path d="M11.1317069,8.77068495 L11.5425436,66.8838552 L59.8682931,67.2293151 L59.4574564,9.11614478 L11.1317069,8.77068495 Z" id="矩形" stroke="#313B40" fill="#FFFFFF" transform="translate(35.500000, 38.000000) rotate(26.000000) translate(-35.500000, -38.000000) "></path>
                <polygon id="矩形" fill="#313B40" transform="translate(43.869597, 19.470223) rotate(26.000000) translate(-43.869597, -19.470223) " points="25.1375222 18.4127173 62.5886116 18.6804389 62.6016712 20.5277278 25.1505818 20.2600062"></polygon>
                <polygon id="矩形-copy-50" fill="#313B40" transform="translate(39.081235, 29.466566) rotate(26.000000) translate(-39.081235, -29.466566) " points="20.3491605 28.4090608 57.8002498 28.6767824 57.8133094 30.5240714 20.3622201 30.2563498"></polygon>
                <polygon id="矩形-copy-52" fill="#313B40" transform="translate(34.292873, 39.462910) rotate(26.000000) translate(-34.292873, -39.462910) " points="15.5607987 38.4054044 53.0118881 38.673126 53.0249477 40.5204149 15.5738583 40.2526933"></polygon>
                <polygon id="矩形-copy-49" fill="#313B40" transform="translate(33.294085, 20.405442) rotate(26.000000) translate(-33.294085, -20.405442) " points="23.696423 19.4132349 42.8786882 19.5503606 42.8917478 21.3976496 23.7094826 21.2605239"></polygon>
                <polygon id="矩形-copy-51" fill="#313B40" transform="translate(28.505724, 30.401786) rotate(26.000000) translate(-28.505724, -30.401786) " points="18.9080612 29.4095785 38.0903265 29.5467042 38.1033861 31.3939931 18.9211208 31.2568674"></polygon>
                <polygon id="矩形-copy-53" fill="#313B40" transform="translate(23.717362, 40.398129) rotate(26.000000) translate(-23.717362, -40.398129) " points="14.1196994 39.405922 33.3019647 39.5430477 33.3150243 41.3903367 14.132759 41.253211"></polygon>
            </g>
            <path d="M205.596105,322 C182.856589,313.871905 169.561006,306.223751 165.709358,299.055537 C159.931886,288.303216 163.697697,274.755115 174.120533,268.795006 C184.543369,262.834897 197.676314,266.719753 203.453786,277.472074 C207.305434,284.640287 208.01954,299.48293 205.596105,322 Z M188.461756,294.528577 C192.587462,292.169367 194.078096,286.806577 191.791179,282.55045 C189.504263,278.294323 184.305806,276.756568 180.1801,279.115778 C176.054394,281.474987 174.563761,286.837777 176.850677,291.093904 C179.137593,295.350031 184.33605,296.887787 188.461756,294.528577 Z" id="合并形状" fill="#0092FF"></path>
            <path d="M279.884419,309.062204 C298.088055,289.048175 313.231195,280.076433 325.313839,282.146978 C343.437804,285.252795 344.888113,299.632104 341.263539,306.887316 C337.638965,314.142527 318.957635,318.037753 315.164992,301.082341 C312.636563,289.778734 325.685432,278.119848 354.3116,266.105685" id="路径-40" stroke="#313B40" stroke-width="2" stroke-dasharray="2" transform="translate(317.098009, 289.591879) scale(-1, 1) rotate(2.000000) translate(-317.098009, -289.591879) "></path>
            <path d="M169,304 L381,304 L381,320 C381,329.941125 372.941125,338 363,338 L169,338 L169,304 Z" id="矩形" fill="#FFC82C"></path>
            <path d="" id="路径-39" stroke="#979797"></path>
            <g id="分组-8" transform="translate(263.602730, 261.281971) rotate(16.000000) translate(-263.602730, -261.281971) translate(245.602730, 252.281971)">
                <polygon id="路径-53" fill="#0092FF" points="32.5309766 10.8829787 31.0810677 17.4895844 0.753445682 -1.13538823e-13"></polygon>
                <polygon id="路径-52" fill="#5FBAFF" points="2.30926389e-13 1.77635684e-15 32.5309766 5.80425532 35.0683172 15.2361702"></polygon>
            </g>
            <rect id="矩形-copy-6" fill="#FF3B30" x="117" y="82" width="7" height="7"></rect>
            <rect id="矩形-copy-11" fill="#13CE66" x="127" y="45" width="31" height="5"></rect>
            <rect id="矩形" fill="#13CE66" x="117" y="44" width="7" height="7"></rect>
            <rect id="矩形-copy-34" fill="#FFC82C" x="127" y="157" width="31" height="5"></rect>
            <rect id="矩形-copy-8" fill="#FFC82C" x="117" y="157" width="7" height="7"></rect>
            <rect id="矩形-copy-35" fill-opacity="0.293132649" fill="#13CE66" x="127" y="204" width="47" height="5"></rect>
            <rect id="矩形-copy-36" fill-opacity="0.293132649" fill="#13CE66" x="127" y="221" width="84" height="5"></rect>
            <rect id="矩形-copy-37" fill-opacity="0.293132649" fill="#13CE66" x="127" y="213" width="65" height="5"></rect>
            <rect id="矩形-copy-38" fill-opacity="0.293132649" fill="#13CE66" x="198" y="213" width="65" height="5"></rect>
            <rect id="矩形-copy-39" fill-opacity="0.293132649" fill="#13CE66" x="270" y="213" width="34" height="5"></rect>
            <rect id="矩形-copy-40" fill="#13CE66" x="127" y="196" width="31" height="5"></rect>
            <rect id="矩形-copy-9" fill="#13CE66" x="117" y="195" width="7" height="7"></rect>
            <rect id="矩形-copy-43" fill="#FF3B30" x="117" y="233" width="7" height="7"></rect>
            <g id="分组-8-copy-3" transform="translate(222.000000, 226.000000)" fill="#B8E1FF">
                <rect id="矩形" x="0" y="0" width="43" height="18" rx="9"></rect>
                <path d="M115.688607,65.6 C120.217342,65.6 123.888607,61.9287349 123.888607,57.4 C123.888607,52.8712651 120.217342,49.2 115.688607,49.2 L91.9730061,49.2 C87.4442712,49.2 83.7730061,45.5287349 83.7730061,41 C83.7730061,36.4712651 87.4442712,32.8 91.9730061,32.8 L98.2803011,32.8 C102.809036,32.8 106.480301,29.1287349 106.480301,24.6 C106.480301,20.0712651 102.809036,16.4 98.2803011,16.4 L69.8871166,16.4 C65.3583816,16.4 61.6871166,12.7287349 61.6871166,8.2 C61.6871166,3.67126505 65.3583816,-9.44441726e-16 69.8871166,-1.77635684e-15 L176.8,-3.55271368e-15 C181.328735,-4.38462879e-15 185,3.67126505 185,8.2 C185,12.7287349 181.328735,16.4 176.8,16.4 L144.725834,16.4 C140.197099,16.4 136.525834,20.0712651 136.525834,24.6 C136.525834,29.1287349 140.197099,32.8 144.725834,32.8 L176.8,32.8 C181.328735,32.8 185,36.4712651 185,41 C185,45.5287349 181.328735,49.2 176.8,49.2 L152.893113,49.2 C148.364378,49.2 144.693113,52.8712651 144.693113,57.4 C144.693113,61.9287349 148.364378,65.6 152.893113,65.6 L176.8,65.6 C181.328735,65.6 185,69.2712651 185,73.8 C185,78.3287349 181.328735,82 176.8,82 L43.2,82 C38.6712651,82 35,78.3287349 35,73.8 C35,69.2712651 38.6712651,65.6 43.2,65.6 L115.688607,65.6 Z" id="合并形状"></path>
            </g>
            <g id="分组-6" transform="translate(88.500000, 231.000000) scale(-1, 1) translate(-88.500000, -231.000000) translate(0.000000, 122.000000)">
                <path d="M67.4489774,73.0714905 C59.2284536,69.0472821 55.1173207,69.0490627 55.1155789,73.076832 C55.1138372,77.1046014 58.8497808,80.4555352 66.32341,83.1296336 L67.4489774,73.0714905 Z" id="路径-12-copy-6" fill="#FFC1C7" transform="translate(61.282278, 76.592151) rotate(-15.000000) translate(-61.282278, -76.592151) "></path>
                <path d="M63.8390993,70.4181952 C64.0071126,74.7781962 64.1751259,79.1381971 64.3431392,83.4981981" id="路径-20-copy-3" stroke="#13161A" transform="translate(64.091119, 76.958197) rotate(2.000000) translate(-64.091119, -76.958197) "></path>
                <path d="M93.2478811,57.1615653 C77.7535622,34.8960145 72.8012244,19.8879685 78.3908678,12.1374272 C86.7753328,0.511615267 93.8132593,2.1523703 101.298166,4.87849026 C108.783073,7.60461022 121.232861,20.0240099 134.022878,27.0711208 C146.812894,34.1182318 174.528192,31.8136253 176.928611,57.1615653 C178.52889,74.0601919 153.22487,89.8863369 101.016552,104.64 L93.2478811,57.1615653 Z" id="路径-33-copy-3" fill="#2F2E41"></path>
                <path d="M26.9816017,27.0398726 C18.757362,23.0083918 14.6461652,23.0065047 14.6480112,27.0342114 C14.6498572,31.0619182 18.8711661,34.5107884 27.3119378,37.3808222 L26.9816017,27.0398726 Z" id="路径-12-copy-4" fill="#FFC1C7" transform="translate(20.979974, 30.697834) rotate(16.000000) translate(-20.979974, -30.697834) "></path>
                <polygon id="路径-9-copy-4" fill="#FFC1C7" points="69.6393443 143.88 55.8565574 208.553333 75.4942691 208.553333 86.3237705 149.693333"></polygon>
                <path d="M55.8565574,207.1 C60.692623,207.278496 67.4631148,207.278496 76.1680328,207.1 L76.1680328,217.273333 L44.25,217.273333 C46.6347607,211.88507 50.5036132,208.493959 55.8565574,207.1 Z" id="矩形-copy-2" fill="#0092FF"></path>
                <path d="M55.8565574,205.919947 C62.6270492,205.979982 69.397541,206.040018 76.1680328,206.100053" id="路径-16-copy-2" stroke="#13161A"></path>
                <path d="M124.953003,151.212862 C118.485125,170.555483 113.129277,186.132113 108.88546,197.942752 C104.641643,209.753391 111.412782,210.251972 129.198877,199.438497 L142.656255,139.783378 L124.953003,151.212862 Z" id="路径-9-copy-5" fill="#FFC1C7" transform="translate(125.157714, 173.487264) rotate(-54.000000) translate(-125.157714, -173.487264) "></path>
                <g id="椭圆形-copy-8" transform="translate(55.856557, 89.380000)">
                    <mask id="mask-2" fill="white">
                        <use xlink:href="#path-1"></use>
                    </mask>
                    <use id="Mask" fill="#0092FF" xlink:href="#path-1"></use>
                    <ellipse id="椭圆形" fill="#FFC82C" mask="url(#mask-2)" cx="9.06762295" cy="51.0775167" rx="6.16598361" ry="6.17666667"></ellipse>
                    <ellipse id="椭圆形" fill="#FFC82C" mask="url(#mask-2)" cx="40.9856557" cy="52.53085" rx="6.16598361" ry="6.17666667"></ellipse>
                </g>
                <polygon id="路径-3" fill="#FFC82C" points="87.0491803 39.7338353 73.7158221 37.7866667 51.5040984 43.9858983 25.1133631 25.6208481 22.4877049 45.78 51.5040984 61.8898988 76.9274287 51.23"></polygon>
                <path d="M73.9918033,37.6040426 C73.0245902,39.5418204 72.5409836,42.2062648 72.5409836,45.5973759 C72.5409836,48.988487 70.8483607,64.593508 67.4631148,92.4124387 L120.793702,92.1040426 C117.023088,82.0056269 114.040881,72.5355444 111.847084,63.693795 C108.556388,50.431171 105.908275,34.2874821 98.6557377,34.9981621 C93.8207128,35.4719487 89.2264505,35.714171 84.8729508,35.7248287 L73.9918033,37.6040426 Z" id="路径-4" fill="#FFC82C"></path>
                <path d="M74.3087874,42.51 L69.9252952,77.39" id="路径-5-copy-2" stroke="#13161A"></path>
                <path d="M91.4016393,98.8266667 C91.6249395,109.134028 92.6291588,133.572638 92.852459,143.88" id="路径-10-copy" stroke="#13161A"></path>
                <path d="M93.1716287,34.3179305 C93.1949084,34.4925993 93.2069261,34.6708367 93.2069261,34.8518858 C93.2069261,37.0591838 91.4206523,38.8485525 89.217172,38.8485525 C87.0136916,38.8485525 85.2274179,37.0591838 85.2274179,34.8518858 C85.2274179,34.6708367 85.2394355,34.4925993 85.2627153,34.3179305 C85.2395442,34.1961355 85.2274179,34.0704268 85.2274179,33.9418858 L85.2274179,29.9485525 C85.2274179,28.843983 86.1228484,27.9485525 87.2274179,27.9485525 L91.2069261,27.9485525 C92.3114956,27.9485525 93.2069261,28.843983 93.2069261,29.9485525 L93.2069261,33.9418858 C93.2069261,34.0704268 93.1947997,34.1961355 93.1716287,34.3179305 Z" id="合并形状-copy" fill="#FFC1C7" transform="translate(89.217172, 33.398552) rotate(10.000000) translate(-89.217172, -33.398552) "></path>
                <path d="M84.8729508,36.8637718 C89.0016306,38.5858797 91.8767754,40.1967706 92.852459,34.88" id="路径-11-copy-2" stroke="#13161A"></path>
                <g id="分组-5-copy-2" transform="translate(91.328429, 17.964916) rotate(10.000000) translate(-91.328429, -17.964916) translate(76.328429, 2.964916)" fill-rule="nonzero">
                    <ellipse id="椭圆形" fill="#2F2E41" cx="15.3373402" cy="14.5413267" rx="14.5161762" ry="14.5413267"></ellipse>
                    <ellipse id="椭圆形" fill="#FFC1C7" cx="13.0646311" cy="16.4081333" rx="13.0646311" ry="13.0872667"></ellipse>
                    <path d="M22.9323924,24.1084689 C17.4526827,29.5976727 8.63499903,29.8071918 2.90163934,24.5844243 C6.50135694,28.5497652 11.9867669,30.2100067 17.1761736,28.9048259 C21.0114817,27.9402126 24.2254918,25.471433 26.1676297,22.1501885 C26.8533233,20.9775858 27.3804752,19.6987216 27.7204537,18.342277 C29.0233771,13.1438793 27.3660071,7.64896539 23.4075246,4.043011 C28.6212588,9.78630419 28.4121022,18.6192652 22.9323924,24.1084689 Z" id="路径" fill="#000000" opacity="0.1"></path>
                </g>
                <g id="分组-4-copy-2" transform="translate(93.197019, 15.214202) rotate(10.000000) translate(-93.197019, -15.214202) translate(81.697019, 3.214202)" fill="#2F2E41" fill-rule="nonzero">
                    <path d="M7.45272271,19.2025603 C7.65724778,18.9141234 7.85463122,18.5883438 8.03464601,18.2344328 C8.82329278,16.6839447 8.97993403,15.1806602 8.38451402,14.8767529 C7.78909402,14.5728456 6.66708621,15.5833991 5.87843944,17.1338872 C5.86629279,17.1577676 5.85429607,17.1816369 5.84244971,17.2054907 C1.77952412,15.1172852 -0.478783094,10.0538185 0.0857104249,6.18033468 C0.668690266,2.18 7.15566989,1.32002703 10.1557377,0.300294548 C13.1558055,-0.719437931 14.3321877,3.13494491 18.6480699,5.08666667 C22.963952,7.03838842 22.3680642,15.6987835 21.6170692,18.711536 C20.8660741,21.7242884 19.529346,23.4077141 17.4488706,23.5703223 C15.6827361,23.7083619 10.2469326,22.2816973 7.45272271,19.2025603 Z" id="合并形状"></path>
                </g>
                <path d="M44.25,217.590227 C54.8893443,217.621187 65.5286885,217.652147 76.1680328,217.683106" id="路径-17-copy-2" stroke="#13161A"></path>
                <path d="M131.237479,204.792964 C141.888244,204.814948 152.539008,204.836931 163.189773,204.858915" id="路径-17-copy-3" stroke="#13161A" transform="translate(147.213626, 204.825940) rotate(-52.000000) translate(-147.213626, -204.825940) "></path>
                <path d="M138.334553,196.121166 C143.175675,196.291936 149.953451,196.286245 158.667881,196.104093 L158.659511,206.068794 L126.707139,206.095623 C129.098898,200.815856 132.974703,197.491037 138.334553,196.121166 Z" id="矩形-copy-3" fill="#0092FF" transform="translate(142.687510, 201.099858) rotate(-52.000000) translate(-142.687510, -201.099858) "></path>
                <path d="M131.496781,192.811253 C138.313472,192.8655 145.130162,192.919747 151.946852,192.973994" id="路径-16-copy-3" stroke="#13161A" transform="translate(141.721817, 192.892623) rotate(-52.000000) translate(-141.721817, -192.892623) "></path>
                <path d="M23.5353782,26.1896608 C24.0186148,30.3073753 24.5018514,34.4250898 24.985088,38.5428043" id="路径-20-copy-2" stroke="#13161A" transform="translate(24.260233, 32.366233) scale(-1, 1) rotate(-3.000000) translate(-24.260233, -32.366233) "></path>
                <path d="M107.366002,92.0472456 C111.675839,92.1416034 115.985675,92.2359613 120.295512,92.3303191" id="路径-22-copy-2" stroke="#13161A" transform="translate(113.830757, 92.188782) rotate(-1.000000) translate(-113.830757, -92.188782) "></path>
                <path d="M126.221311,151.146667 C129.848361,155.991111 133.47541,160.835556 137.102459,165.68" id="路径-23-copy" stroke="#13161A"></path>
                <path d="" id="路径-24-copy-2" stroke="#979797"></path>
                <polygon id="矩形-copy-4" fill-opacity="0.1" fill="#000000" transform="translate(89.224171, 145.062434) rotate(3.000000) translate(-89.224171, -145.062434) " points="88.1332589 114.179149 90.3094988 114.179346 90.3150822 175.94572 88.1388423 175.945523"></polygon>
                <polygon id="路径-33" fill="#FFC82C" points="105.184426 41.42 96.8422131 63.6939687 64.9241803 70.4866667 64.9241803 93.74 118.241803 71.2133333"></polygon>
                <path d="M75.442623,70.1233333 L98.159799,65.7633333" id="路径-34" stroke="#13161A"></path>
                <path d="M94,47 L97.4525375,65.7020321" id="路径-35-copy" stroke="#13161A"></path>
                <polygon id="路径-35" fill-opacity="0.1" fill="#000000" points="115.5 73.3933333 67.4631148 91.9340506 120.793702 91.9340506"></polygon>
                <g id="分组-9" transform="translate(0.000000, 46.506667)">
                    <polygon id="路径-45-copy" stroke="#13161A" fill="#0092FF" points="39.897541 26.8866667 39.897541 30.1305375 64.5614754 30.1305375 64.5614754 26.8866667"></polygon>
                    <polygon id="路径-44-copy" stroke="#13161A" fill="#FFFFFF" points="0 0 13.057377 30.1305375 48.602459 30.1305375 35.545082 0"></polygon>
                    <g id="分组-7-copy" transform="translate(12.331967, 11.626667)">
                        <ellipse id="椭圆形" fill="#0092FF" cx="1.81352459" cy="1.81666667" rx="1.81352459" ry="1.81666667"></ellipse>
                        <ellipse id="椭圆形-copy-9" fill="#FFC82C" cx="9.06762295" cy="1.81666667" rx="1.81352459" ry="1.81666667"></ellipse>
                        <ellipse id="椭圆形-copy-10" fill="#13CE66" cx="15.5963115" cy="1.81666667" rx="1.81352459" ry="1.81666667"></ellipse>
                    </g>
                </g>
            </g>
        </g>
    </g>
</svg>