<svg t="1638110345450" class="icon" viewBox="0 0 1024 1024" version="1.1" xmlns="http://www.w3.org/2000/svg" p-id="1672" width="48" height="48"><path d="M254.4 542.5c-87.6 0-158.8-71.2-158.8-158.8V255.9c0-87.6 71.2-158.8 158.8-158.8h127.8c87.6 0 158.8 71.2 158.8 158.8 0 16.6-13.4 30-30 30s-30-13.4-30-30c0-26.3-10.3-51-29.1-69.8-18.7-18.7-43.5-29.1-69.8-29.1H254.4c-26.3 0-51 10.3-69.8 29.1-18.7 18.7-29.1 43.5-29.1 69.8v127.8c0 26.3 10.3 51 29.1 69.8 18.7 18.7 43.5 29.1 69.8 29.1 16.6 0 30 13.4 30 30s-13.4 29.9-30 29.9z" fill="#FF9A4C" p-id="1673"></path><path d="M683.8 824.3c-35.6 0-71.2-13.6-98.4-40.7-11.7-11.7-11.7-30.7 0-42.4s30.7-11.7 42.4 0c30.8 30.8 81 30.8 111.9 0 30.8-30.8 30.8-81 0-111.9-11.7-11.7-11.7-30.7 0-42.4s30.7-11.7 42.4 0c54.2 54.2 54.2 142.5 0 196.7-27.1 27.2-62.7 40.7-98.3 40.7z" fill="#FFD34C" p-id="1674"></path><path d="M852.7 880.1c-7.7 0-15.4-2.9-21.2-8.8l-82.4-82.4c-11.7-11.7-11.7-30.7 0-42.4s30.7-11.7 42.4 0l82.4 82.4c11.7 11.7 11.7 30.7 0 42.4-5.8 5.8-13.5 8.8-21.2 8.8zM688.5 959.3c-16.6 0-30-13.4-30-30v-58.2c0-16.6 13.4-30 30-30s30 13.4 30 30v58.2c0 16.6-13.4 30-30 30zM929.9 717.9h-58.2c-16.6 0-30-13.4-30-30s13.4-30 30-30h58.2c16.6 0 30 13.4 30 30s-13.4 30-30 30zM578.6 769.3h-3.5c-27.4-0.7-55.2-9.1-85-25.8-30-16.8-61.2-41.7-95.5-75.9-67.2-67.3-118.1-143.5-143.3-214.6-27.8-78.5-21.6-143.4 17.6-182.6 39.2-39.2 104.1-45.5 182.6-17.6C522.6 278 598.9 329 666.1 396.3c34.2 34.2 59.1 65.5 75.9 95.5 16.7 29.7 25.1 57.5 25.8 85 1.4 58-32.8 99.8-62.8 129.8-29.4 29.3-70.2 62.7-126.4 62.7z m-216-473.7c-22.2 0-39.8 5.7-51.3 17.2-21.6 21.6-22.9 65.4-3.5 120.1 22.3 62.9 68.2 131.2 129.3 192.3 54.9 54.9 101.8 83.2 139.5 84.1 27.8 0.7 53.5-12.9 85.9-45.3 32.4-32.4 45.9-58.1 45.3-85.9-0.9-37.6-29.2-84.6-84.1-139.5-61.1-61.1-129.4-107-192.3-129.3-25.7-9.1-49.1-13.7-68.8-13.7z" fill="#FE4E50" p-id="1675"></path></svg>